<svg width="412" height="103" viewBox="0 0 412 103" fill="none" xmlns="http://www.w3.org/2000/svg">
<rect x="5" y="5" width="402" height="93.569" rx="25.9914" fill="white" fill-opacity="0.95" stroke="#FF8F45" stroke-width="8.66379"/>
<g filter="url(#filter0_d_131_2)">
<path d="M162.544 48.6988L153.232 55.3322C152.075 56.1561 151.092 57.2008 150.341 58.4062L147.612 62.7768C147.532 62.9078 147.448 63.0364 147.36 63.1623C146.694 64.101 143.63 68.3089 140.831 70.0861C137.509 72.1963 130.443 73.3904 129.076 73.6081C128.922 73.6322 128.766 73.6514 128.611 73.6657C127.376 73.7884 121.642 74.3541 120.851 74.3541V62.2636H125.472C126.155 62.2636 126.813 61.9833 127.309 61.4801L132.838 55.8629C134.936 53.6201 141.084 51.197 144.661 50.2157C144.712 50.2009 144.757 50.1717 144.792 50.1318C144.826 50.0918 144.849 50.0427 144.856 49.9904L146.068 42.8863C146.13 42.5292 146.25 42.1954 146.428 41.885L151.805 32.6983C151.917 32.4937 152.075 32.3187 152.268 32.1878C152.46 32.0569 152.681 31.9739 152.913 31.9457C153.144 31.9176 153.378 31.945 153.597 32.0259C153.815 32.1067 154.011 32.2385 154.168 32.4104C155.79 34.1426 156.361 36.7034 155.64 39.0314L154.151 41.6372L160.672 30.6106C160.855 30.2929 161.102 30.0171 161.398 29.8008C161.695 29.5845 162.033 29.4326 162.391 29.3548C162.749 29.277 163.12 29.275 163.479 29.349C163.838 29.423 164.178 29.5714 164.476 29.7845L164.767 29.9948C165.605 30.5906 166.036 31.6219 165.876 32.6532L163.653 46.8965C163.596 47.2552 163.469 47.5991 163.278 47.9084C163.088 48.2177 162.839 48.4863 162.544 48.6988Z" fill="#FF8F45"/>
<path d="M170.915 41.811C172.5 46.5671 172.517 56.6801 159.901 59.0831" stroke="#FF8F45" stroke-width="3.50449" stroke-linecap="round"/>
<path d="M179.377 41.811C181.676 48.7039 181.7 63.3604 163.405 66.8431" stroke="#FF8F45" stroke-width="3.50449" stroke-linecap="round"/>
</g>
<path d="M97.8431 54.9501H106.751V64.7086H97.8431V73.6664H88.0847V64.7086H79.1269V54.9501H88.0847V45.9923H97.8431V54.9501Z" fill="#FF8F45"/>
<path d="M212.972 52.4024C211.471 52.4691 210.195 52.7944 209.144 53.3782C208.093 53.962 207.301 54.696 206.767 55.5801C206.25 56.4475 205.991 57.3483 205.991 58.2825C205.991 58.7829 206.1 59.1749 206.316 59.4585C206.55 59.7421 207.017 59.9589 207.718 60.109C208.418 60.2592 209.469 60.3342 210.87 60.3342C212.422 60.3342 214.165 60.2675 216.1 60.1341C215.666 61.1183 215.391 62.0357 215.274 62.8865C215.174 63.7205 215.116 64.7297 215.099 65.9141C214.632 65.9308 213.956 65.9391 213.072 65.9391C209.302 65.9391 206.408 65.6889 204.39 65.1885C202.388 64.6713 201.037 63.9791 200.336 63.1117C199.652 62.2276 199.31 61.1099 199.31 59.7587C199.31 58.3075 199.611 56.9897 200.211 55.8053C200.812 54.6043 201.654 53.545 202.738 52.6276L195.207 53.7786V47.9735C196.491 47.9735 198.676 47.9318 201.762 47.8484L206.592 47.7233C208.31 47.6899 209.895 47.6482 211.346 47.5982C212.797 47.5315 214.79 47.4314 217.326 47.2979L217.401 52.4024H212.972ZM216.826 58.1824C216.459 56.9146 215.95 55.7052 215.299 54.5542L217.426 53.9537C218.077 55.088 218.594 56.2974 218.977 57.5819L216.826 58.1824ZM214.048 58.958C213.681 57.6903 213.172 56.4809 212.522 55.3299L214.649 54.7294C215.299 55.8637 215.816 57.0731 216.2 58.3575L214.048 58.958ZM243.298 47.9985V52.2772H219.428V47.9985H224.983L224.807 47.2229L230.362 46.9226C230.379 47.2229 230.421 47.5815 230.487 47.9985H232.239C232.289 47.765 232.331 47.4064 232.364 46.9226L237.919 47.2229L237.744 47.9985H243.298ZM233.09 52.7527H237.493V61.3351H233.09V52.7527ZM238.069 52.7527H242.748V64.2126C242.748 64.6964 242.573 65.055 242.223 65.2885C241.889 65.5054 241.13 65.6639 239.946 65.764C238.761 65.864 236.835 65.9141 234.166 65.9141C234.216 64.5295 233.924 63.1534 233.29 61.7855L233.915 61.8105C235.917 61.8772 236.951 61.9106 237.018 61.9106C237.435 61.9106 237.71 61.8939 237.844 61.8606C237.994 61.8272 238.069 61.7605 238.069 61.6604V52.7527ZM232.439 63.7372C232.439 64.4545 232.322 64.9716 232.089 65.2885C231.855 65.5888 231.321 65.8057 230.487 65.9391C229.653 66.0559 228.269 66.1143 226.334 66.1143C226.067 64.3461 225.65 62.9532 225.083 61.9356L226.934 61.9607C227.251 61.9607 227.46 61.944 227.56 61.9106C227.677 61.8772 227.735 61.8105 227.735 61.7104V61.4352H224.857V65.9391H220.153V52.8027H232.439V63.7372ZM227.735 56.2057V55.6802H224.857V56.2057H227.735ZM224.857 58.5077V59.0331H227.735V58.5077H224.857ZM256.41 47.1228C258.612 47.1228 260.597 47.5398 262.365 48.3739C264.133 49.1912 265.518 50.3256 266.519 51.7768C267.536 53.2281 268.045 54.8545 268.045 56.656C268.045 58.3242 267.661 59.8505 266.894 61.235C266.127 62.6029 265.051 63.7372 263.666 64.638C262.298 65.5388 260.722 66.1309 258.937 66.4145C258.17 65.0633 257.161 63.9457 255.909 63.0616C255.292 63.8623 254.575 64.4461 253.758 64.8131C252.94 65.1801 251.989 65.3636 250.905 65.3636C248.837 65.3636 247.21 64.7631 246.026 63.562C244.858 62.3443 244.274 60.6762 244.274 58.5577C244.274 56.4392 244.808 54.5125 245.876 52.7777C246.943 51.0262 248.403 49.65 250.255 48.6491C252.106 47.6315 254.158 47.1228 256.41 47.1228ZM256.835 61.5103C258.603 61.16 259.855 60.5761 260.589 59.7587C261.322 58.9414 261.689 57.8321 261.689 56.4309C261.689 54.4625 260.772 53.1363 258.937 52.4524C258.704 54.5209 258.412 56.2974 258.061 57.782C257.728 59.25 257.319 60.4927 256.835 61.5103ZM251.23 59.3834C251.581 59.3834 251.856 59.2249 252.056 58.908C252.273 58.5744 252.481 57.9405 252.682 57.0064C252.882 56.0555 253.115 54.5709 253.382 52.5525C252.348 52.9862 251.539 53.6451 250.955 54.5292C250.371 55.4133 250.079 56.4392 250.079 57.6069C250.079 58.7912 250.463 59.3834 251.23 59.3834ZM270.247 51.8018V47.2979H292.566V51.8018H283.734V52.3523H286.886V61.0849H275.927V52.3523H279.055V51.8018H270.247ZM275.426 61.6354H287.387V52.5024H292.516V66.1893H287.387V65.814H275.426V66.1893H270.297V52.5024H275.426V61.6354ZM279.905 55.5801V54.3791H279.13V55.5801H279.905ZM282.908 55.5801H283.684V54.3791H282.908V55.5801ZM279.93 57.6819H279.13V58.858H279.93V57.6819ZM282.933 57.6819V58.858H283.684V57.6819H282.933ZM317.963 47.3229V50.7759H309.506L309.306 51.2764H317.613V66.1393H312.083V65.9641H300.773V66.1393H295.244V51.2764H303.401L303.576 50.7759H294.893V47.3229H317.963ZM301.574 54.7044H300.773V62.0357H301.574V54.7044ZM305.728 55.6802H307.129V54.7044H305.728V55.6802ZM311.282 62.0357H312.083V54.7044H311.282V62.0357ZM305.728 58.958H307.129V57.807H305.728V58.958ZM307.129 61.0849H305.728V62.0357H307.129V61.0849ZM328.848 48.6491C332.251 47.9985 335.612 47.6733 338.931 47.6733C339.932 47.6733 341.058 47.715 342.309 47.7984C342.309 48.9827 342.326 50.0086 342.359 50.876C342.393 51.7268 342.476 52.5858 342.61 53.4533C340.691 53.2197 338.931 53.103 337.33 53.103C334.761 53.103 332.034 53.4032 329.148 54.0037L328.848 48.6491ZM320.891 65.9391C320.591 64.5045 320.365 63.1534 320.215 61.8856C320.082 60.6011 320.015 59.1582 320.015 57.5568C320.015 54.9379 320.224 51.7518 320.641 47.9985H327.021C326.521 52.1688 326.271 55.4216 326.271 57.757C326.271 59.2917 326.362 60.6595 326.546 61.8606C326.746 63.0449 327.046 64.2293 327.447 65.4136L320.891 65.9391ZM335.654 65.839C332.951 65.839 330.983 65.3136 329.749 64.2627C328.514 63.2117 327.897 61.602 327.897 59.4335C327.897 58.8163 327.947 58.1574 328.047 57.4567C329.999 57.2899 331.75 56.7978 333.302 55.9805C333.218 56.6978 333.176 57.2482 333.176 57.6319C333.176 58.2825 333.26 58.7746 333.427 59.1082C333.61 59.4418 333.877 59.667 334.227 59.7838C334.578 59.9005 335.053 59.9589 335.654 59.9589C337.138 59.9589 338.456 59.9172 339.607 59.8338C340.775 59.7337 342.134 59.5002 343.686 59.1332C343.519 59.7504 343.385 60.6428 343.285 61.8105C343.202 62.9615 343.16 64.1542 343.16 65.3886C341.792 65.5721 340.541 65.6972 339.407 65.764C338.273 65.814 337.022 65.839 335.654 65.839ZM344.812 47.2979H368.032V50.7009H344.812V47.2979ZM368.307 61.8606C367.807 62.5945 367.373 63.3702 367.006 64.1876C366.639 65.005 366.364 65.7556 366.18 66.4395C363.444 65.9891 361.067 64.8799 359.049 63.1117L359.024 63.1367C358.14 63.954 357.081 64.6463 355.846 65.2135C354.612 65.7806 353.261 66.1893 351.793 66.4395C351.426 65.005 350.825 63.6454 349.991 62.361C349.841 63.0449 349.657 63.6621 349.441 64.2126C349.24 64.7631 348.965 65.422 348.615 66.1893C346.713 65.472 345.053 64.9633 343.636 64.663C344.386 63.2785 344.87 61.8522 345.087 60.3843C345.304 58.9163 345.412 57.0064 345.412 54.6543V51.1763L367.531 51.2013V57.1315H350.492C350.441 59.0998 350.308 60.6762 350.091 61.8606C353.294 61.7438 355.371 61.3852 356.322 60.7846H350.767V57.6819H356.922V57.3567H361.076V57.6819H367.757V60.7846H361.326C362.06 61.1349 362.844 61.3685 363.678 61.4852C364.512 61.602 365.696 61.7104 367.231 61.8105C367.448 61.8105 367.807 61.8272 368.307 61.8606ZM362.777 54.4041V53.7285H350.517V54.4041H362.777ZM384.571 53.5283C386.439 53.5283 388.016 53.8036 389.3 54.3541C390.585 54.8878 391.535 55.5885 392.153 56.4559C392.787 57.3066 393.104 58.2241 393.104 59.2083C393.104 60.9264 392.545 62.336 391.427 63.4369C390.326 64.5379 388.9 65.3469 387.148 65.864C385.414 66.3645 383.554 66.6147 381.568 66.6147C379.567 66.6147 377.807 66.2894 376.289 65.6388C374.788 64.9716 373.92 63.9958 373.687 62.7113C373.653 62.4778 373.637 62.311 373.637 62.2109C373.637 61.5103 373.887 60.868 374.387 60.2842C374.904 59.7004 375.597 59.2416 376.464 58.908C377.348 58.5744 378.316 58.4076 379.367 58.4076C382.086 58.4076 384.396 59.2666 386.298 60.9848C386.631 60.6512 386.798 60.2759 386.798 59.8588C386.798 59.0581 386.406 58.4326 385.622 57.9822C384.855 57.5151 383.654 57.2816 382.019 57.2816C380.784 57.2816 379.525 57.4317 378.241 57.732C376.973 58.0156 375.755 58.4993 374.587 59.1832L370.259 61.7605C370.008 59.325 369.717 57.3817 369.383 55.9304C370.767 55.3466 372.152 54.7794 373.537 54.2289C374.304 53.912 375.196 53.545 376.214 53.128C377.231 52.711 378.399 52.2272 379.717 51.6767H372.11V47.2729H389.951L391.077 50.801L387.399 52.3273C387.048 52.4774 386.64 52.6526 386.172 52.8527C385.705 53.0529 385.172 53.2781 384.571 53.5283ZM378.116 61.4602C378.116 61.6771 378.357 61.8606 378.841 62.0107C379.342 62.1441 380.034 62.2109 380.918 62.2109H381.093C380.826 61.7938 380.509 61.4936 380.142 61.3101C379.792 61.1266 379.375 61.0265 378.891 61.0098C378.374 61.0098 378.116 61.16 378.116 61.4602Z" fill="#FF8F45"/>
<g filter="url(#filter1_d_131_2)">
<path d="M59.2785 45.838L58.4767 55.946C58.3768 57.2017 58.5264 58.4649 58.9169 59.6626L60.3308 64.0078C60.374 64.1371 60.4133 64.2677 60.4486 64.3993C60.7067 65.3868 61.8188 69.8672 61.4309 72.7817C60.9709 76.2414 57.7537 81.723 57.1225 82.7757C57.0507 82.8944 56.9752 83.0108 56.8962 83.1248C56.276 84.0332 53.3911 88.2518 52.9401 88.7892L44.7261 81.8968L47.3603 78.7574C47.7499 78.2931 47.9347 77.6861 47.8754 77.0625L47.2114 70.1036C46.8835 67.3999 48.742 61.8418 50.1146 58.8522C50.1334 58.8092 50.1395 58.7618 50.1321 58.7155C50.1247 58.6692 50.1041 58.626 50.0728 58.5911L45.9371 53.7181C45.7296 53.4726 45.5714 53.2007 45.4623 52.9024L42.2862 44.0124C42.2106 43.8201 42.1821 43.6126 42.203 43.4071C42.2238 43.2017 42.2935 43.0041 42.4062 42.831C42.5188 42.6579 42.6712 42.5142 42.8506 42.4119C43.0301 42.3096 43.2313 42.2516 43.4377 42.2429C45.5392 42.1283 47.6043 43.2004 48.7749 45.0173L49.6962 47.5147L45.9223 36.7986C45.8108 36.493 45.7646 36.1676 45.7865 35.8431C45.8083 35.5186 45.8979 35.2023 46.0493 34.9145C46.2007 34.6267 46.4107 34.3737 46.6657 34.1719C46.9208 33.9701 47.2152 33.8239 47.5301 33.7427L47.8385 33.6653C48.7213 33.4352 49.6674 33.7306 50.2767 34.4274L58.6862 44.0572C58.8975 44.3003 59.0586 44.5828 59.1602 44.8885C59.2619 45.1941 59.3021 45.5168 59.2785 45.838Z" fill="#FF8F45"/>
<path d="M40.0474 29.4173C43.4949 25.5747 52.2253 20.195 59.5671 29.4173" stroke="#FF8F45" stroke-width="1.87253" stroke-linecap="round"/>
<path d="M34.106 21.3548C39.577 17.5122 53.4319 12.1325 65.0829 21.3548" stroke="#FF8F45" stroke-width="1.87253" stroke-linecap="round"/>
</g>
<defs>
<filter id="filter0_d_131_2" x="120.851" y="29.2949" width="73.9586" height="57.6891" filterUnits="userSpaceOnUse" color-interpolation-filters="sRGB">
<feFlood flood-opacity="0" result="BackgroundImageFix"/>
<feColorMatrix in="SourceAlpha" type="matrix" values="0 0 0 0 0 0 0 0 0 0 0 0 0 0 0 0 0 0 127 0" result="hardAlpha"/>
<feOffset dx="7.01665" dy="7.01665"/>
<feGaussianBlur stdDeviation="2.80666"/>
<feComposite in2="hardAlpha" operator="out"/>
<feColorMatrix type="matrix" values="0 0 0 0 0 0 0 0 0 0 0 0 0 0 0 0 0 0 0.25 0"/>
<feBlend mode="normal" in2="BackgroundImageFix" result="effect1_dropShadow_131_2"/>
<feBlend mode="normal" in="SourceGraphic" in2="effect1_dropShadow_131_2" result="shape"/>
</filter>
<filter id="filter1_d_131_2" x="33.1694" y="15.3267" width="42.292" height="82.905" filterUnits="userSpaceOnUse" color-interpolation-filters="sRGB">
<feFlood flood-opacity="0" result="BackgroundImageFix"/>
<feColorMatrix in="SourceAlpha" type="matrix" values="0 0 0 0 0 0 0 0 0 0 0 0 0 0 0 0 0 0 127 0" result="hardAlpha"/>
<feOffset dx="5.24577" dy="5.24577"/>
<feGaussianBlur stdDeviation="2.09831"/>
<feComposite in2="hardAlpha" operator="out"/>
<feColorMatrix type="matrix" values="0 0 0 0 0 0 0 0 0 0 0 0 0 0 0 0 0 0 0.25 0"/>
<feBlend mode="normal" in2="BackgroundImageFix" result="effect1_dropShadow_131_2"/>
<feBlend mode="normal" in="SourceGraphic" in2="effect1_dropShadow_131_2" result="shape"/>
</filter>
</defs>
</svg>
