<svg width="53" height="73" viewBox="0 0 53 73" fill="none" xmlns="http://www.w3.org/2000/svg">
<g filter="url(#filter0_d_96_250)">
<path d="M14.0904 31.2793L14.6742 23.9182C14.747 23.0036 14.6381 22.0838 14.3537 21.2115L13.324 18.0471C13.2925 17.9529 13.2639 17.8579 13.2382 17.762C13.0502 17.0428 12.2403 13.78 12.5229 11.6575C12.8578 9.13792 15.2008 5.14593 15.6605 4.37929C15.7128 4.29284 15.7677 4.20805 15.8253 4.12503C16.2769 3.46353 18.3779 0.391267 18.7063 -9.86402e-05L24.6882 5.01935L22.7698 7.30562C22.4861 7.64373 22.3515 8.08584 22.3947 8.53995L22.8782 13.6078C23.1171 15.5768 21.7636 19.6245 20.764 21.8017C20.7503 21.833 20.7459 21.8675 20.7513 21.9013C20.7567 21.935 20.7717 21.9664 20.7944 21.9919L23.8063 25.5406C23.9574 25.7194 24.0726 25.9174 24.1521 26.1346L26.4651 32.6089C26.5201 32.7489 26.5409 32.9 26.5257 33.0496C26.5105 33.1993 26.4598 33.3431 26.3777 33.4692C26.2957 33.5953 26.1847 33.6999 26.054 33.7744C25.9234 33.8489 25.7768 33.8911 25.6265 33.8975C24.096 33.9809 22.5921 33.2002 21.7396 31.877L21.0687 30.0583L23.8171 37.8624C23.8982 38.0849 23.9319 38.3219 23.916 38.5582C23.9001 38.7945 23.8349 39.0249 23.7246 39.2345C23.6143 39.4441 23.4614 39.6283 23.2757 39.7752C23.0899 39.9222 22.8755 40.0287 22.6462 40.0878L22.4216 40.1442C21.7787 40.3118 21.0897 40.0966 20.6459 39.5892L14.5217 32.5762C14.3678 32.3992 14.2505 32.1934 14.1765 31.9709C14.1024 31.7483 14.0732 31.5133 14.0904 31.2793Z" fill="white"/>
<path d="M28.0955 43.2375C25.5848 46.0359 19.2268 49.9536 13.8801 43.2375" stroke="white" stroke-width="3.59213" stroke-linecap="round"/>
<path d="M32.4219 49.109C28.4376 51.9074 18.3477 55.8252 9.86278 49.109" stroke="white" stroke-width="3.59213" stroke-linecap="round"/>
</g>
<defs>
<filter id="filter0_d_96_250" x="8.06665" y="0" width="44.265" height="72.7267" filterUnits="userSpaceOnUse" color-interpolation-filters="sRGB">
<feFlood flood-opacity="0" result="BackgroundImageFix"/>
<feColorMatrix in="SourceAlpha" type="matrix" values="0 0 0 0 0 0 0 0 0 0 0 0 0 0 0 0 0 0 127 0" result="hardAlpha"/>
<feOffset dx="10.0631" dy="10.0631"/>
<feGaussianBlur stdDeviation="4.02525"/>
<feComposite in2="hardAlpha" operator="out"/>
<feColorMatrix type="matrix" values="0 0 0 0 0 0 0 0 0 0 0 0 0 0 0 0 0 0 0.25 0"/>
<feBlend mode="normal" in2="BackgroundImageFix" result="effect1_dropShadow_96_250"/>
<feBlend mode="normal" in="SourceGraphic" in2="effect1_dropShadow_96_250" result="shape"/>
</filter>
</defs>
</svg>
