<svg width="94" height="145" viewBox="0 0 94 145" fill="none" xmlns="http://www.w3.org/2000/svg">
<g filter="url(#filter0_d_44_425)">
<path d="M33.0909 28.4732C33.7652 28.05 34.5637 27.8692 35.3545 27.9607C35.4843 27.983 35.6172 27.9782 35.745 27.9466C35.8728 27.915 35.9927 27.8573 36.097 27.777C36.2014 27.6967 36.288 27.5957 36.3513 27.4803C36.4146 27.3649 36.4533 27.2376 36.465 27.1064C36.4955 26.8465 36.4233 26.585 36.2637 26.3775C36.1041 26.1701 35.8699 26.0332 35.6108 25.996C34.2996 25.8123 32.9627 26.1497 31.895 26.9356C31.7284 27.0577 31.6052 27.2298 31.5433 27.4268C31.4814 27.6238 31.484 27.8354 31.5507 28.0308C31.6174 28.2262 31.7448 28.3953 31.9143 28.5132C32.0838 28.6312 32.2865 28.692 32.4929 28.6867C32.7098 28.6806 32.9192 28.6059 33.0909 28.4732ZM44.879 28.6867C44.6664 28.6961 44.4566 28.6361 44.2811 28.5159C43.6116 28.0425 42.7862 27.8438 41.9747 27.9607C41.8473 27.9826 41.7168 27.9772 41.5917 27.945C41.4665 27.9127 41.3497 27.8543 41.2488 27.7736C41.1479 27.6929 41.0652 27.5917 41.0063 27.4767C40.9474 27.3617 40.9135 27.2355 40.9069 27.1064C40.8889 26.9773 40.8969 26.8458 40.9302 26.7198C40.9636 26.5937 41.0217 26.4755 41.1013 26.3722C41.1808 26.2688 41.2801 26.1823 41.3934 26.1177C41.5067 26.0531 41.6317 26.0117 41.7611 25.996C43.0852 25.8678 44.4092 26.1967 45.5197 26.9356C45.6226 27.0127 45.7089 27.1097 45.7734 27.2209C45.838 27.3321 45.8795 27.4551 45.8954 27.5827C45.9114 27.7103 45.9015 27.8397 45.8663 27.9634C45.831 28.087 45.7713 28.2023 45.6905 28.3023C45.5913 28.4215 45.4673 28.5176 45.3271 28.584C45.187 28.6504 45.0341 28.6854 44.879 28.6867ZM42.9314 28.832C43.5201 28.8298 44.0926 29.0251 44.5572 29.3867C45.0218 29.7483 45.3516 30.2553 45.494 30.8265C45.5239 30.9606 45.5005 31.101 45.4288 31.2182C45.357 31.3353 45.2426 31.42 45.1096 31.4544C45.0686 31.4604 45.0268 31.4604 44.9858 31.4544H44.17C44.248 31.1701 44.2497 30.8702 44.1749 30.585C44.1002 30.2998 43.9517 30.0393 43.7443 29.8298C43.5369 29.6202 43.278 29.469 42.9936 29.3913C42.7091 29.3136 42.4093 29.3122 42.1242 29.3872C41.6975 29.5109 41.3357 29.7959 41.1157 30.1818C40.8956 30.5677 40.8345 31.0242 40.9454 31.4544H40.8129C40.6997 31.4544 40.591 31.4094 40.5109 31.3293C40.4308 31.2492 40.3858 31.1406 40.3858 31.0273V30.9504C40.5061 30.3605 40.8239 29.8292 41.2866 29.4441C41.7493 29.059 42.3295 28.8431 42.9314 28.832Z" fill="white"/>
<path fill-rule="evenodd" clip-rule="evenodd" d="M31.8543 31.4715H36.0656C36.1782 31.4762 36.288 31.4362 36.3712 31.3602C36.4544 31.2842 36.5042 31.1783 36.5098 31.0658V30.9804C36.4209 30.5373 36.2205 30.1242 35.9274 29.7801C35.6344 29.4361 35.2584 29.1725 34.8351 29.0143C34.4118 28.8561 33.9551 28.8085 33.5082 28.876C33.0614 28.9435 32.6391 29.1239 32.2814 29.4001C31.8142 29.7598 31.4854 30.2697 31.3503 30.8437C31.3192 30.9773 31.3415 31.1177 31.4126 31.235C31.4836 31.3523 31.5977 31.4372 31.7305 31.4715C31.7715 31.4776 31.8132 31.4776 31.8543 31.4715ZM33.0972 29.8272C33.2535 29.6704 33.4392 29.546 33.6437 29.4612C33.8482 29.3763 34.0674 29.3326 34.2888 29.3326C34.5102 29.3326 34.7294 29.3763 34.9339 29.4612C35.1384 29.546 35.3241 29.6704 35.4804 29.8272C35.7993 30.1395 35.9832 30.5641 35.993 31.0103C35.9844 31.1612 35.9616 31.3107 35.9246 31.4587H35.1473C35.2233 31.3219 35.2603 31.1667 35.2541 31.0103C35.2541 30.8167 35.2 30.6387 35.0918 30.4764C35.0671 30.531 35.0267 30.5769 34.9756 30.6083C34.9246 30.6396 34.8653 30.6549 34.8054 30.6521C34.7456 30.6494 34.688 30.6287 34.64 30.5928C34.5921 30.5569 34.556 30.5074 34.5365 30.4508C34.5157 30.3923 34.5136 30.3289 34.5304 30.2692C34.5472 30.2095 34.5822 30.1565 34.6305 30.1176C34.399 30.0268 34.141 30.0314 33.913 30.1304C33.7893 30.1816 33.6777 30.2579 33.5853 30.3547C33.4929 30.4514 33.4217 30.5664 33.3762 30.6922C33.3308 30.818 33.3121 30.952 33.3215 31.0855C33.3308 31.2189 33.3679 31.349 33.4303 31.4673H32.6615C32.585 31.1796 32.5849 30.877 32.6613 30.5893C32.7377 30.3016 32.888 30.0389 33.0972 29.8272Z" fill="white"/>
<path d="M39.1218 35.341C39.2799 35.3416 39.436 35.3052 39.5775 35.2347C39.719 35.1641 39.842 35.0614 39.9367 34.9348C40.0313 34.8081 40.095 34.6611 40.1226 34.5054C40.1502 34.3497 40.141 34.1897 40.0956 34.0383L39.1218 30.882C39.0861 30.7803 39.0294 30.6872 38.9554 30.6088C38.8814 30.5305 38.7918 30.4685 38.6923 30.427C38.5928 30.3856 38.4857 30.3655 38.378 30.368C38.2702 30.3706 38.1642 30.3958 38.0668 30.442C37.9803 30.4852 37.9032 30.5452 37.8401 30.6185C37.777 30.6919 37.7292 30.7771 37.6995 30.8692L36.7172 34.0297C36.6912 34.1274 36.6769 34.2277 36.6745 34.3287C36.6722 34.4608 36.6963 34.5921 36.7453 34.7148C36.7943 34.8375 36.8672 34.9492 36.9598 35.0435C37.0525 35.1377 37.163 35.2125 37.2848 35.2636C37.4067 35.3147 37.5375 35.341 37.6696 35.341H39.1218ZM35.6836 36.46C36.5292 36.8946 37.4663 37.1213 38.4171 37.1213C39.3679 37.1213 40.3049 36.8946 41.1505 36.46C41.1844 36.4403 41.2219 36.4278 41.2608 36.4234C41.2997 36.419 41.3391 36.4227 41.3764 36.4344C41.4138 36.446 41.4483 36.4653 41.4778 36.4911C41.5073 36.5168 41.5311 36.5484 41.5478 36.5838C41.574 36.6293 41.5878 36.6808 41.5878 36.7333C41.5878 36.7858 41.574 36.8374 41.5478 36.8828C41.014 37.7081 40.175 38.2883 39.2144 38.4964C38.2539 38.7046 37.25 38.5236 36.4225 37.9933C35.9814 37.703 35.6048 37.325 35.3163 36.8828C35.293 36.849 35.2769 36.8108 35.269 36.7706C35.2611 36.7303 35.2616 36.6889 35.2704 36.6488C35.2792 36.6088 35.2962 36.5709 35.3202 36.5377C35.3443 36.5045 35.3749 36.4766 35.4102 36.4557C35.4536 36.4376 35.5003 36.4286 35.5474 36.4293C35.5944 36.43 35.6408 36.4405 35.6836 36.46ZM42.9188 30.1303C42.7725 30.0676 42.6131 30.0421 42.4546 30.0559C42.2961 30.0698 42.1435 30.1226 42.0103 30.2097C41.8772 30.2967 41.7676 30.4154 41.6914 30.555C41.6151 30.6947 41.5746 30.851 41.5734 31.0101C41.5762 31.1724 41.6132 31.329 41.6844 31.4799H43.3929C43.4578 31.3357 43.4954 31.1808 43.5039 31.0229C43.5039 30.8464 43.4583 30.6798 43.3672 30.5232C43.3425 30.5561 43.3113 30.5836 43.2755 30.6038C43.2396 30.6241 43.2 30.6368 43.1591 30.641C43.1181 30.6453 43.0768 30.641 43.0375 30.6286C42.9983 30.6161 42.9621 30.5956 42.9311 30.5685C42.9002 30.5414 42.8752 30.5082 42.8576 30.4709C42.8401 30.4337 42.8305 30.3932 42.8293 30.3521C42.8282 30.3109 42.8355 30.27 42.8509 30.2318C42.8663 30.1937 42.8894 30.1591 42.9188 30.1303Z" fill="white"/>
<path d="M4.10951 120.297L8.17984 118.904L5.6172 95.3281C5.26199 92.1146 6.19073 88.8908 8.20119 86.3589L16.9013 75.4292C14.751 74.5128 12.7271 73.3242 10.8792 71.8928C9.83916 71.0963 9.08949 69.9804 8.74534 68.7165C8.40119 67.4525 8.48161 66.1106 8.97425 64.8968L12.7371 55.62C13.7907 53.2143 14.9741 50.8674 16.282 48.5899L15.4705 48.402C13.6923 48.0055 12.0712 47.0915 10.8117 45.775C9.55223 44.4585 8.71075 42.7985 8.39339 41.0045L7.33417 34.9994C6.15195 34.5693 5.16333 33.7292 4.54805 32.6319C3.93278 31.5346 3.7317 30.2529 3.98139 29.0199L5.20291 22.9208L4.4213 18.4875C4.36436 18.2824 4.31596 18.0732 4.27609 17.8596L4.10951 16.7192L4.07535 16.5398L4.01556 16.1127C3.9643 15.7796 3.94579 15.4436 3.96003 15.1048C4.00646 13.8314 4.49623 12.6143 5.3447 11.6637C6.19316 10.713 7.34704 10.0886 8.60695 9.89835L8.923 9.85137H9.71315C9.89049 9.77064 10.0732 9.70214 10.2598 9.64636C10.2083 8.28238 10.6716 6.9489 11.5578 5.91076C12.444 4.87263 13.6883 4.2058 15.0434 4.04273L15.304 4.00002H15.7311C17.0097 3.99697 18.2483 4.44571 19.2282 5.26702C20.2082 6.08834 20.8665 7.22943 21.087 8.4889L21.4415 10.7782C22.2687 11.0356 23.0214 11.4895 23.6352 12.1009C24.249 12.7124 24.7057 13.4633 24.9663 14.2896C25.2269 15.1159 25.2837 15.993 25.1317 16.8459C24.9798 17.6989 24.6237 18.5024 24.0938 19.1879L23.466 19.9866L23.577 20.5803C24.295 18.8637 25.5958 17.4555 27.2501 16.6039L28.0616 16.1768C28.184 16.1167 28.2987 16.0421 28.4033 15.9547L29.8982 14.4598C31.0148 13.3524 32.4181 12.5782 33.9505 12.2244C35.4829 11.8705 37.0835 11.951 38.5727 12.4567L38.5983 12.5421C39.5507 12.133 40.5747 11.9164 41.6111 11.9046C42.6476 11.8929 43.6762 12.0863 44.6376 12.4738C45.573 12.8582 46.4186 13.4262 47.1276 14.1395L48.9642 15.9761C49.0964 16.087 49.2395 16.1843 49.3913 16.2665L49.9209 16.5014L50.032 16.5527L50.143 16.6082C51.6309 17.3678 52.8381 18.5819 53.5892 20.0742C54.3403 21.5664 54.5963 23.2592 54.3201 24.9069L53.8247 27.6104C54.7905 29.2181 55.1073 31.1334 54.7105 32.9664C54.3138 34.7994 53.2333 36.4123 51.6891 37.4766L51.6251 38.3308C51.6251 38.5016 51.5952 38.6981 51.5695 38.8647L51.561 38.933L68.7307 46.2451C70.7715 47.1096 72.4328 48.68 73.4108 50.6689C74.3888 52.6578 74.6181 54.9324 74.0567 57.0765L72.865 61.7362C73.751 62.619 74.2942 63.7881 74.3975 65.0345C74.5007 66.2809 74.1574 67.5234 73.4288 68.54L69.8411 73.5243L69.7685 73.7251L69.0595 76.3091L68.9314 76.7362C68.4744 78.7393 67.5049 80.5887 66.1168 82.1006C64.6988 83.2965 62.8793 83.9073 61.0342 83.809C58.8133 83.8304 56.6265 83.2538 54.7045 82.1476L55.6185 84.612C57.647 90.1253 60.4825 95.3071 64.0325 99.9878L76 115.752L73.9542 118.349L73.8132 118.524L74.3428 126.639C74.3929 127.311 74.3101 127.986 74.0991 128.626C73.8881 129.265 73.553 129.857 73.1131 130.367C72.6732 130.878 72.137 131.296 71.5353 131.599C70.9336 131.901 70.278 132.083 69.6062 132.132H65.0191C64.1521 132.132 63.3021 131.91 62.5462 131.487C61.7859 131.914 60.9317 132.132 60.0604 132.132H48.4132C46.9685 132.142 45.5678 131.635 44.4631 130.704C43.3585 129.773 42.6225 128.478 42.3877 127.053C42.1528 125.627 42.4346 124.165 43.1822 122.929C43.9298 121.692 45.0941 120.764 46.4656 120.31L49.1777 119.396L44.5735 105.673C44.0012 103.964 43.036 102.41 41.7589 101.137L32.4993 91.954L26.0927 97.4166C28.802 103.798 31.4828 110.192 34.1351 116.598L35.3224 119.46L32.9733 121.476C32.5035 121.863 32.0067 122.21 31.4827 122.518L31.7475 126.639C31.8419 127.992 31.3988 129.328 30.5144 130.356C29.63 131.385 28.3757 132.023 27.0238 132.132H22.4708C21.6166 132.132 20.7795 131.918 20.0363 131.504C19.2803 131.918 18.4347 132.132 17.5762 132.132H6.07848C4.63868 132.132 3.24557 131.621 2.14735 130.69C1.04914 129.759 0.317146 128.468 0.0817719 127.048C-0.153603 125.627 0.12294 124.169 0.862129 122.934C1.60133 121.698 2.75516 120.765 4.11806 120.301L4.10951 120.297ZM12.9293 66.4856C12.7867 66.8337 12.7629 67.2192 12.8618 67.5821C12.9606 67.9451 13.1765 68.2653 13.476 68.493C16.5877 70.9777 20.3437 72.5231 24.3031 72.9477L24.1152 70.4876C23.5649 63.2625 24.3615 55.9981 26.4642 49.064C26.6674 48.2316 26.9536 47.4218 27.3185 46.6465L23.0987 46.2194C21.9939 47.4922 21.0258 48.8647 20.1943 50.3367C18.913 52.5662 17.7499 54.8541 16.7049 57.2003L12.9293 66.4856ZM20.5189 15.0364C20.2881 14.8618 19.9983 14.7841 19.7111 14.82C19.4239 14.8559 19.162 15.0025 18.9813 15.2286L18.0033 16.4715L17.6787 14.336L17.6061 13.9089L16.8843 9.21071C16.83 8.94505 16.6856 8.70634 16.4754 8.53507C16.2652 8.3638 16.0022 8.27053 15.7311 8.27108H15.5688C15.2554 8.31058 14.9705 8.47242 14.776 8.72127C14.5816 8.97013 14.4935 9.28579 14.5309 9.59938L15.163 13.6697C15.0764 13.3938 14.8928 13.1587 14.6462 13.0078C14.3996 12.8568 14.1066 12.8004 13.8216 12.8489C13.5365 12.8973 13.2787 13.0474 13.0958 13.2714C12.9129 13.4953 12.8173 13.7779 12.8268 14.0669C12.7143 13.9329 12.5737 13.8251 12.4151 13.7513C12.2564 13.6775 12.0835 13.6395 11.9085 13.6398H11.7291C11.4228 13.6884 11.1473 13.8541 10.9609 14.1019C10.7744 14.3497 10.6915 14.6603 10.7297 14.9681H10.5759C10.5119 14.7084 10.3627 14.4776 10.1521 14.3127C9.94147 14.1478 9.68166 14.0582 9.41418 14.0584H9.24332C8.96259 14.102 8.70654 14.2441 8.52106 14.4594C8.33559 14.6746 8.2328 14.9488 8.23109 15.2329C8.22389 15.311 8.22389 15.3897 8.23109 15.4678L8.2738 15.754L8.32506 16.0615L8.47881 17.1079C8.49635 17.2048 8.52502 17.2994 8.56424 17.3898L9.54658 23.019L19.3999 21.5114L19.0881 19.773C19.0964 19.06 19.3363 18.369 19.7715 17.8041L20.7154 16.5996C20.8078 16.4852 20.8762 16.3533 20.9165 16.2118C20.9567 16.0703 20.968 15.9222 20.9497 15.7762C20.9313 15.6303 20.8837 15.4895 20.8097 15.3624C20.7357 15.2353 20.6368 15.1244 20.5189 15.0364ZM21.8344 35.23L20.6684 28.6996L10.9048 30.6813L12.5918 40.2314C12.7648 41.1982 13.2188 42.0926 13.8971 42.8028C14.5755 43.5131 15.4481 44.0077 16.4059 44.2249L22.0181 45.5062C22.039 45.3738 22.0984 45.2505 22.1889 45.1517L26.366 41.0386C26.03 40.1759 25.8165 39.2847 25.7254 38.365V38.2625L25.5631 36.0671L21.8344 35.23ZM49.2333 28.849L49.0624 29.7972C49.0132 30.0689 48.8714 30.3152 48.6612 30.4943C48.451 30.6733 48.1853 30.7741 47.9092 30.7796C47.9092 30.7796 48.016 29.3829 48.0673 28.3621V28.0973C48.0737 27.8498 48.0289 27.6036 47.9355 27.3743C47.8422 27.1449 47.7023 26.9374 47.5248 26.7648L47.1832 26.4658C46.9526 26.2633 46.7685 26.0135 46.6432 25.7334C46.5179 25.4534 46.4544 25.1496 46.4571 24.8428V23.3052C46.4552 23.0908 46.3832 22.8829 46.2521 22.7133C46.121 22.5436 45.938 22.4215 45.731 22.3656C43.4207 21.8307 41.055 21.5727 38.6837 21.5968C36.3133 21.588 33.9493 21.8458 31.6365 22.3656C31.4295 22.4215 31.2465 22.5436 31.1154 22.7133C30.9843 22.8829 30.9123 23.0908 30.9104 23.3052V24.8855C30.9077 25.1915 30.8418 25.4935 30.7169 25.7728C30.5919 26.0521 30.4106 26.3026 30.1843 26.5085L29.8427 26.8075C29.6514 26.9774 29.5018 27.189 29.4055 27.426C29.3092 27.663 29.2688 27.9191 29.2874 28.1742C29.3728 29.1993 29.4583 30.7369 29.4583 30.7369C29.1896 30.7219 28.9339 30.6168 28.7324 30.4385C28.5309 30.2603 28.3954 30.0193 28.3478 29.7545L28.1342 28.58C27.4887 28.871 26.9627 29.3748 26.644 30.0071C26.3253 30.6394 26.2333 31.3619 26.3833 32.054C26.5333 32.746 26.9162 33.3655 27.4681 33.8091C28.02 34.2527 28.7075 34.4935 29.4156 34.4911H29.7402L29.817 35.529L29.9921 37.972C30.1203 39.4114 30.7609 40.7568 31.7945 41.7647L32.0209 41.9655C32.4936 42.3812 33.0175 42.7101 33.5926 42.9521L33.7208 42.9948L33.8062 43.0204C34.4421 43.2575 35.1137 43.3846 35.7922 43.3963H41.6094C42.1327 43.3874 42.6525 43.3098 43.1555 43.1656C43.3006 43.1206 43.4432 43.0678 43.5827 43.0076C43.9417 42.8797 44.2866 42.7151 44.612 42.5164L44.6675 42.4823L44.7188 42.4524L44.9323 42.32C45.562 41.8541 46.086 41.2602 46.4699 40.5774C46.9464 39.7995 47.2386 38.9229 47.3241 38.0147L47.5804 34.5039C48.2373 34.4906 48.8729 34.268 49.3947 33.8686C49.9165 33.4691 50.2973 32.9137 50.4816 32.2829C50.666 31.6522 50.6443 30.9791 50.4198 30.3615C50.1953 29.744 49.7796 29.2141 49.2333 28.849ZM54.7173 76.7789C55.6573 77.7848 56.8162 78.5608 58.1043 79.0468C59.0439 79.3671 60.0348 79.5337 61.0299 79.5423C61.8104 79.6041 62.5884 79.396 63.2338 78.9529C64.0113 77.9103 64.564 76.7177 64.8568 75.4506L64.9422 75.1772L65.6939 72.4352C65.7593 72.2638 65.8135 72.0883 65.8562 71.9099L65.9246 71.6493L56.272 69.0098L56.1695 69.4369L56.1353 69.5693C55.0547 70.1374 53.9784 71.0557 54.3628 72.3498C54.8155 73.866 54.965 74.4853 54.965 74.4853C54.6529 74.7727 54.4557 75.1637 54.4101 75.5855C54.3646 76.0074 54.4737 76.4315 54.7173 76.7789ZM21.403 97.438C21.2495 97.0858 21.2131 96.6936 21.2992 96.3191C21.3853 95.9446 21.5894 95.6077 21.8814 95.358L32.5292 86.2948L33.0032 86.4614L44.7401 98.1086C46.4912 99.8469 47.8067 101.974 48.5841 104.314L54.5208 122.001V122.031C57.2133 122.334 59.9395 122.043 62.5074 121.179C65.0754 120.315 67.4227 118.899 69.3841 117.029C69.8086 116.608 70.2106 116.165 70.5886 115.701L60.6199 102.563C56.8205 97.5516 53.785 92.0044 51.6122 86.1026L48.7976 78.483C49.577 78.1835 50.3299 77.8192 51.0485 77.3939C51.247 77.2806 51.4039 77.1066 51.4962 76.8975C51.5884 76.6884 51.6112 76.4552 51.561 76.2322L49.6433 67.9207C48.823 64.2993 49.0016 60.5231 50.1601 56.9953L51.0784 54.232L59.172 57.6915L58.0872 61.9327L67.8465 64.1664L69.9266 56.013C70.2229 54.858 70.0965 53.6351 69.5701 52.5652C69.0438 51.4953 68.1522 50.6488 67.0564 50.1787L50.0875 42.9179C49.276 44.2206 48.1783 45.3182 46.8756 46.1255L47.7299 50.6571C47.7732 50.835 47.7582 51.0222 47.6871 51.191C47.5937 51.4264 47.4115 51.6156 47.1798 51.7179C46.9481 51.8201 46.6854 51.8272 46.4485 51.7377L38.6837 48.7906C36.4174 52.2683 35.1919 56.3212 35.1516 60.472C35.1516 62.1121 35.1516 63.97 35.2712 65.2299L35.9844 72.9947H24.333L11.554 88.9941C10.2342 90.6513 9.61919 92.7654 9.84555 94.8711L12.673 120.852C17.441 121.9 22.4076 121.588 27.0067 119.951C28.1402 119.544 29.2058 118.968 30.1673 118.242C30.1673 118.242 23.4489 102.017 21.4244 97.438H21.403ZM29.9025 53.9031C29.9025 54.1749 30.0104 54.4357 30.2027 54.6279C30.3949 54.8201 30.6556 54.9281 30.9275 54.9281C31.1994 54.9281 31.4601 54.8201 31.6523 54.6279C31.8446 54.4357 31.9526 54.1749 31.9526 53.9031C31.9526 53.6312 31.8446 53.3705 31.6523 53.1783C31.4601 52.986 31.1994 52.878 30.9275 52.878C30.6556 52.878 30.3949 52.986 30.2027 53.1783C30.0104 53.3705 29.9025 53.6312 29.9025 53.9031ZM29.8042 61.8643C30.0761 61.8643 30.3368 61.7563 30.529 61.5641C30.7213 61.3719 30.8293 61.1111 30.8293 60.8393C30.8293 60.5674 30.7213 60.3067 30.529 60.1145C30.3368 59.9222 30.0761 59.8142 29.8042 59.8142C29.5324 59.8142 29.2716 59.9222 29.0794 60.1145C28.8872 60.3067 28.7792 60.5674 28.7792 60.8393C28.7792 61.1111 28.8872 61.3719 29.0794 61.5641C29.2716 61.7563 29.5324 61.8643 29.8042 61.8643ZM28.5229 68.3692C28.5229 68.641 28.6309 68.9017 28.8231 69.094C29.0154 69.2862 29.2761 69.3942 29.548 69.3942C29.8198 69.3942 30.0805 69.2862 30.2728 69.094C30.465 68.9017 30.573 68.641 30.573 68.3692C30.573 68.0973 30.465 67.8366 30.2728 67.6443C30.0805 67.4521 29.8198 67.3441 29.548 67.3441C29.2761 67.3441 29.0154 67.4521 28.8231 67.6443C28.6309 67.8366 28.5229 68.0973 28.5229 68.3692Z" fill="white"/>
</g>
<defs>
<filter id="filter0_d_44_425" x="0" y="0" width="94" height="144.132" filterUnits="userSpaceOnUse" color-interpolation-filters="sRGB">
<feFlood flood-opacity="0" result="BackgroundImageFix"/>
<feColorMatrix in="SourceAlpha" type="matrix" values="0 0 0 0 0 0 0 0 0 0 0 0 0 0 0 0 0 0 127 0" result="hardAlpha"/>
<feOffset dx="10" dy="4"/>
<feGaussianBlur stdDeviation="4"/>
<feComposite in2="hardAlpha" operator="out"/>
<feColorMatrix type="matrix" values="0 0 0 0 0 0 0 0 0 0 0 0 0 0 0 0 0 0 0.25 0"/>
<feBlend mode="normal" in2="BackgroundImageFix" result="effect1_dropShadow_44_425"/>
<feBlend mode="normal" in="SourceGraphic" in2="effect1_dropShadow_44_425" result="shape"/>
</filter>
</defs>
</svg>
