<svg width="143" height="111" viewBox="0 0 143 111" fill="none" xmlns="http://www.w3.org/2000/svg">
<g filter="url(#filter0_d_43_293)">
<path d="M38.3053 37.4703L56.1687 50.1956C58.3884 51.776 60.2734 53.7801 61.715 56.0924L66.9491 64.4767C67.1032 64.7281 67.2649 64.9747 67.4341 65.2162C68.7115 67.0169 74.5891 75.0891 79.9577 78.4985C86.3299 82.5465 99.8859 84.8371 102.508 85.2549C102.804 85.301 103.102 85.3378 103.401 85.3653C105.768 85.6006 116.77 86.6858 118.287 86.6858V63.4923H109.423C108.112 63.4923 106.849 62.9545 105.898 61.9893L95.2904 51.2136C91.2664 46.911 79.4727 42.2627 72.6107 40.3804C72.5133 40.3519 72.4263 40.296 72.3598 40.2193C72.2934 40.1427 72.2505 40.0486 72.2361 39.9482L69.912 26.3201C69.7935 25.6351 69.563 24.9948 69.2205 24.3994L58.9058 6.77609C58.6923 6.38364 58.3882 6.04788 58.0186 5.79677C57.6491 5.54566 57.225 5.38646 56.7815 5.33243C56.338 5.27841 55.8881 5.33112 55.4691 5.48618C55.0501 5.64123 54.6742 5.89415 54.3727 6.22386C51.2611 9.54683 50.1662 14.4593 51.5492 18.9251L54.4064 23.924L41.8972 2.77123C41.5459 2.16179 41.0709 1.6326 40.5028 1.2177C39.9348 0.802793 39.2861 0.511348 38.5987 0.3621C37.9113 0.212853 37.2002 0.209106 36.5112 0.351099C35.8222 0.493093 35.1706 0.777684 34.5982 1.18658L34.0412 1.58995C32.4325 2.73282 31.6066 4.71123 31.9139 6.68965L36.178 34.0129C36.2871 34.701 36.5312 35.3608 36.8963 35.9541C37.2614 36.5475 37.7402 37.0628 38.3053 37.4703Z" fill="white"/>
<path d="M22.2475 24.2573C19.2063 33.3811 19.1742 52.7811 43.3762 57.391" stroke="white" stroke-width="6.72277" stroke-linecap="round"/>
<path d="M6.01408 24.2573C1.60389 37.4802 1.55747 65.5961 36.6533 72.2771" stroke="white" stroke-width="6.72277" stroke-linecap="round"/>
</g>
<defs>
<filter id="filter0_d_43_293" x="0.638428" y="0.247314" width="141.877" height="110.667" filterUnits="userSpaceOnUse" color-interpolation-filters="sRGB">
<feFlood flood-opacity="0" result="BackgroundImageFix"/>
<feColorMatrix in="SourceAlpha" type="matrix" values="0 0 0 0 0 0 0 0 0 0 0 0 0 0 0 0 0 0 127 0" result="hardAlpha"/>
<feOffset dx="13.4603" dy="13.4603"/>
<feGaussianBlur stdDeviation="5.38411"/>
<feComposite in2="hardAlpha" operator="out"/>
<feColorMatrix type="matrix" values="0 0 0 0 0 0 0 0 0 0 0 0 0 0 0 0 0 0 0.25 0"/>
<feBlend mode="normal" in2="BackgroundImageFix" result="effect1_dropShadow_43_293"/>
<feBlend mode="normal" in="SourceGraphic" in2="effect1_dropShadow_43_293" result="shape"/>
</filter>
</defs>
</svg>
