<svg width="202" height="150" viewBox="0 0 202 150" fill="none" xmlns="http://www.w3.org/2000/svg">
<path d="M182.582 13.4799C187.129 13.8616 191.276 16.2413 193.882 20.0006L193.887 19.998C196.494 23.7822 197.242 28.534 195.895 32.916L167.891 124.006C162.751 140.727 142.916 147.795 125.088 142.314C107.26 136.833 94.8212 119.843 99.9616 103.122C105.102 86.4007 124.937 79.3329 142.766 84.8138C144.44 85.3286 146.062 85.9396 147.621 86.6386L154.746 63.4649L92.261 58.2951L74.4394 116.265C69.2987 132.986 49.4634 140.054 31.6355 134.573C13.8078 129.092 1.3694 112.103 6.50968 95.3815C11.6502 78.6603 31.4847 71.5923 49.3127 77.073C50.9873 77.5878 52.6098 78.1989 54.1695 78.8981L73.4276 16.2554C75.5101 9.48149 82.0547 5.1324 89.1241 5.73854L182.576 13.48L182.582 13.4799Z" fill="#F8BD00" stroke="white" stroke-width="10"/>
</svg>
