<svg width="102" height="171" viewBox="0 0 102 171" fill="none" xmlns="http://www.w3.org/2000/svg">
<path d="M28.1715 17.646C26.7374 18.0776 25.5329 19.0594 24.823 20.3754C24.1131 21.6915 23.956 23.234 24.3862 24.6636L48.739 105.592C41.9557 102.647 34.354 102.141 27.2298 104.16C20.1056 106.18 13.8998 110.6 9.67031 116.667C5.44083 122.734 3.44945 130.073 4.03564 137.432C4.62183 144.792 7.74931 151.716 12.8849 157.025C18.0206 162.334 24.8465 165.7 32.199 166.547C39.5516 167.395 46.9758 165.672 53.2059 161.673C59.4361 157.674 64.0866 151.646 66.3647 144.617C68.6428 137.588 68.4075 129.992 65.6989 123.125C65.6532 122.756 65.58 122.39 65.4798 122.031L45.4742 55.5488L83.3261 44.1586C88.5845 42.5762 93.001 38.9763 95.604 34.1507C98.2069 29.3251 98.783 23.6692 97.2056 18.4272C95.6282 13.1852 92.0265 8.78653 87.1928 6.19877C82.3591 3.61102 76.6893 3.0462 71.4308 4.62857L28.1715 17.646Z" fill="#FFFB00" stroke="white" stroke-width="7"/>
</svg>
