<svg width="159" height="140" viewBox="0 0 159 140" fill="none" xmlns="http://www.w3.org/2000/svg">
<path d="M98.5814 4.52951C97.1684 4.03288 95.6167 4.11611 94.2676 4.7609C92.9184 5.40568 91.8823 6.5592 91.3873 7.96768L63.3624 87.6992C59.6186 81.3217 53.7759 76.4325 46.8303 73.865C39.8848 71.2975 32.2663 71.2106 25.2735 73.6193C18.2808 76.0279 12.3466 80.7829 8.48265 87.0737C4.61866 93.3645 3.06401 100.802 4.08372 108.118C5.10343 115.433 8.63437 122.175 14.0746 127.193C19.5149 132.211 26.5278 135.196 33.9178 135.637C41.3078 136.078 48.6174 133.95 54.6008 129.614C60.5841 125.278 64.8707 119.003 66.7299 111.859C66.9108 111.534 67.0672 111.195 67.1977 110.846L90.2199 45.3473L127.512 58.4551C132.693 60.276 138.382 59.9708 143.329 57.6066C148.276 55.2424 152.075 51.0129 153.89 45.8484C155.705 40.6839 155.388 35.0076 153.009 30.0682C150.629 25.1287 146.381 21.3308 141.201 19.5098L98.5814 4.52951Z" fill="#006AFF" stroke="white" stroke-width="7"/>
</svg>
