<svg width="160" height="204" viewBox="0 0 160 204" fill="none" xmlns="http://www.w3.org/2000/svg">
<path d="M96.427 8.06351C100.255 5.57963 104.99 4.91987 109.353 6.29443L109.356 6.28939C113.735 7.68316 117.236 10.981 118.856 15.2697L152.526 104.42C158.707 120.786 147.36 138.523 129.912 145.113C112.463 151.703 92.223 145.895 86.0421 129.53C79.8613 113.164 91.2089 95.4265 108.657 88.8366C110.296 88.2177 111.952 87.707 113.613 87.3041L105.048 64.6236L52.494 98.8168L73.9216 155.553C80.1021 171.918 68.7547 189.656 51.3063 196.246C33.8579 202.835 13.6186 197.027 7.43773 180.662C1.25701 164.297 12.6038 146.559 30.0522 139.969C31.6911 139.35 33.3479 138.839 35.009 138.437L11.8541 77.1272C9.35027 70.4974 11.8587 63.0507 17.8175 59.1989L96.4222 8.06741L96.427 8.06351Z" fill="#DB347F" stroke="white" stroke-width="10"/>
</svg>
