<svg width="375" height="72" viewBox="0 0 375 72" fill="none" xmlns="http://www.w3.org/2000/svg">
<rect x="4" y="4" width="367.204" height="63.5707" rx="21.7407" fill="white" fill-opacity="0.95" stroke="#FF8F45" stroke-width="7.24689"/>
<g filter="url(#filter0_d_141_3)">
<path d="M150.896 35.5906L143.122 41.1291C142.155 41.8169 141.335 42.6892 140.708 43.6956L138.429 47.3448C138.362 47.4542 138.292 47.5615 138.218 47.6666C137.662 48.4504 135.104 51.9637 132.768 53.4476C129.994 55.2095 124.094 56.2064 122.953 56.3882C122.824 56.4083 122.694 56.4243 122.564 56.4363C121.534 56.5387 116.746 57.0111 116.085 57.0111V46.9163H119.943C120.514 46.9163 121.064 46.6822 121.477 46.2622L126.094 41.5722C127.846 39.6995 132.979 37.6764 135.965 36.8571C136.008 36.8447 136.046 36.8204 136.075 36.787C136.103 36.7537 136.122 36.7127 136.128 36.669L137.14 30.7376C137.192 30.4394 137.292 30.1607 137.441 29.9016L141.93 22.2312C142.023 22.0604 142.156 21.9143 142.316 21.805C142.477 21.6957 142.662 21.6264 142.855 21.6029C143.048 21.5794 143.244 21.6023 143.426 21.6698C143.608 21.7373 143.772 21.8474 143.903 21.9909C145.258 23.4372 145.734 25.5752 145.132 27.5189L143.889 29.6946L149.333 20.4882C149.486 20.2229 149.693 19.9926 149.94 19.812C150.187 19.6314 150.47 19.5046 150.769 19.4396C151.068 19.3746 151.377 19.373 151.677 19.4348C151.977 19.4966 152.261 19.6205 152.51 19.7985L152.752 19.974C153.452 20.4714 153.812 21.3325 153.678 22.1936L151.822 34.0858C151.775 34.3853 151.669 34.6724 151.51 34.9307C151.351 35.1889 151.142 35.4132 150.896 35.5906Z" fill="#FF8F45"/>
<path d="M157.885 29.8396C159.209 33.8106 159.223 42.2543 148.689 44.2607" stroke="#FF8F45" stroke-width="2.92601" stroke-linecap="round"/>
<path d="M164.951 29.8396C166.87 35.5947 166.891 47.8319 151.615 50.7397" stroke="#FF8F45" stroke-width="2.92601" stroke-linecap="round"/>
</g>
<path d="M97.1628 36.3722H104.6V44.5198H97.1628V51.999H89.0151V44.5198H81.536V36.3722H89.0151V28.893H97.1628V36.3722Z" fill="#FF8F45"/>
<path d="M193.288 33.458C192.034 33.5137 190.969 33.7853 190.091 34.2727C189.214 34.7602 188.552 35.373 188.107 36.1112C187.675 36.8354 187.459 37.5875 187.459 38.3675C187.459 38.7853 187.55 39.1126 187.731 39.3494C187.926 39.5861 188.316 39.7672 188.901 39.8925C189.486 40.0179 190.363 40.0806 191.533 40.0806C192.828 40.0806 194.284 40.0249 195.899 39.9134C195.537 40.7352 195.307 41.5012 195.21 42.2115C195.126 42.9079 195.078 43.7505 195.064 44.7394C194.674 44.7533 194.11 44.7603 193.371 44.7603C190.224 44.7603 187.807 44.5513 186.122 44.1335C184.451 43.7018 183.323 43.1238 182.738 42.3995C182.167 41.6614 181.881 40.7282 181.881 39.6001C181.881 38.3884 182.132 37.2881 182.633 36.2992C183.135 35.2964 183.838 34.412 184.743 33.646L178.455 34.607V29.7602C179.527 29.7602 181.352 29.7254 183.929 29.6557L187.961 29.5513C189.395 29.5234 190.718 29.4886 191.93 29.4468C193.142 29.3911 194.806 29.3075 196.923 29.1961L196.986 33.458H193.288ZM196.505 38.2839C196.199 37.2254 195.774 36.2156 195.231 35.2546L197.007 34.7532C197.55 35.7003 197.982 36.7101 198.302 37.7825L196.505 38.2839ZM194.186 38.9315C193.88 37.873 193.455 36.8633 192.912 35.9023L194.688 35.4009C195.231 36.348 195.663 37.3577 195.983 38.4301L194.186 38.9315ZM213.385 37.7407C213.441 38.1864 213.734 38.6321 214.263 39.0778C214.792 39.5235 215.447 39.8856 216.227 40.1641C217.021 40.4427 217.821 40.582 218.629 40.582C217.696 42.0861 217.028 43.5694 216.624 45.0318C215.621 44.7254 214.688 44.3215 213.824 43.8201C212.961 43.3048 212.25 42.7059 211.693 42.0235C210.593 43.3048 208.803 44.3355 206.324 45.1154C205.711 43.082 205.05 41.6056 204.339 40.6864C204.019 42.1349 203.706 43.6391 203.399 45.199L198.156 44.3842L198.908 42.1697C199.312 40.9998 199.688 39.8716 200.036 38.7853C200.398 37.685 200.711 36.6753 200.976 35.756L201.874 35.9023C201.345 35.0666 200.739 34.1961 200.057 33.2908C199.388 32.3855 198.782 31.6334 198.239 31.0346L202.877 28.9663C203.462 29.8298 204.2 31.0624 205.092 32.6641C205.565 31.5777 205.851 30.366 205.948 29.029H210.356L210.21 29.7602H218.546C218.532 32.0304 218.434 33.9106 218.253 35.4009C218.086 36.8772 217.738 38.1864 217.209 39.3285C216.624 39.0081 215.969 38.7017 215.245 38.4092C214.535 38.1168 213.915 37.8939 213.385 37.7407ZM209.145 34.0847H213.365V37.5736C213.365 37.6432 213.372 37.6989 213.385 37.7407C213.831 37.309 214.152 36.7658 214.346 36.1112C214.555 35.4427 214.695 34.6279 214.764 33.6669H209.145C208.448 35.6864 207.557 37.3856 206.47 38.7644C206.039 37.9287 205.642 37.2672 205.28 36.7797C204.931 38.1446 204.646 39.3285 204.423 40.3313C207.571 40.0945 209.145 38.9385 209.145 36.8633V34.0847ZM202.731 36.0485L205.008 36.4037C204.729 36.0555 204.381 35.6934 203.963 35.3173L202.731 36.0485ZM229.555 29.0499C231.394 29.0499 233.051 29.3981 234.528 30.0944C236.004 30.7769 237.16 31.724 237.996 32.9357C238.845 34.1474 239.27 35.5053 239.27 37.0095C239.27 38.4023 238.95 39.6767 238.309 40.8327C237.668 41.9747 236.77 42.9218 235.614 43.6739C234.472 44.426 233.156 44.9204 231.666 45.1572C231.025 44.0291 230.182 43.0959 229.138 42.3577C228.622 43.0263 228.023 43.5137 227.341 43.8201C226.659 44.1265 225.865 44.2797 224.959 44.2797C223.232 44.2797 221.874 43.7784 220.886 42.7756C219.911 41.7588 219.423 40.3661 219.423 38.5973C219.423 36.8285 219.869 35.2198 220.76 33.7713C221.652 32.3089 222.87 31.1599 224.416 30.3242C225.962 29.4747 227.675 29.0499 229.555 29.0499ZM229.911 41.0625C231.387 40.77 232.432 40.2825 233.044 39.6001C233.657 38.9176 233.964 37.9914 233.964 36.8215C233.964 35.178 233.198 34.0708 231.666 33.4997C231.471 35.2268 231.227 36.7101 230.934 37.9496C230.656 39.1753 230.315 40.2129 229.911 41.0625ZM225.231 39.2867C225.523 39.2867 225.753 39.1544 225.92 38.8897C226.101 38.6112 226.276 38.0819 226.443 37.302C226.61 36.5081 226.805 35.2686 227.028 33.5833C226.164 33.9454 225.489 34.4956 225.001 35.2337C224.514 35.9719 224.27 36.8285 224.27 37.8034C224.27 38.7923 224.59 39.2867 225.231 39.2867ZM241.108 32.9566V29.1961H259.744V32.9566H252.369V33.4162H255.001V40.7073H245.851V33.4162H248.462V32.9566H241.108ZM245.433 41.1669H255.419V33.5415H259.702V44.9692H255.419V44.6558H245.433V44.9692H241.15V33.5415H245.433V41.1669ZM249.173 36.1112V35.1084H248.525V36.1112H249.173ZM251.68 36.1112H252.327V35.1084H251.68V36.1112ZM249.193 37.8661H248.525V38.848H249.193V37.8661ZM251.7 37.8661V38.848H252.327V37.8661H251.7ZM280.949 29.217V32.1H273.887L273.72 32.5178H280.656V44.9274H276.039V44.7811H266.596V44.9274H261.979V32.5178H268.79L268.936 32.1H261.687V29.217H280.949ZM267.265 35.38H266.596V41.5012H267.265V35.38ZM270.733 36.1947H271.903V35.38H270.733V36.1947ZM275.37 41.5012H276.039V35.38H275.37V41.5012ZM270.733 38.9315H271.903V37.9705H270.733V38.9315ZM271.903 40.7073H270.733V41.5012H271.903V40.7073ZM290.036 30.3242C292.878 29.7811 295.684 29.5095 298.456 29.5095C299.291 29.5095 300.231 29.5443 301.276 29.6139C301.276 30.6028 301.29 31.4593 301.318 32.1836C301.346 32.8939 301.415 33.6112 301.527 34.3354C299.925 34.1404 298.456 34.0429 297.119 34.0429C294.974 34.0429 292.696 34.2936 290.287 34.795L290.036 30.3242ZM283.393 44.7603C283.142 43.5625 282.954 42.4343 282.829 41.3758C282.717 40.3034 282.662 39.0987 282.662 37.7616C282.662 35.575 282.836 32.9148 283.184 29.7811H288.511C288.093 33.263 287.884 35.9789 287.884 37.9287C287.884 39.2101 287.961 40.3522 288.114 41.3549C288.281 42.3438 288.532 43.3327 288.866 44.3215L283.393 44.7603ZM295.719 44.6767C293.463 44.6767 291.819 44.238 290.788 43.3605C289.758 42.4831 289.242 41.1391 289.242 39.3285C289.242 38.8131 289.284 38.263 289.368 37.678C290.997 37.5388 292.46 37.1279 293.755 36.4454C293.685 37.0443 293.651 37.5039 293.651 37.8243C293.651 38.3675 293.72 38.7783 293.859 39.0569C294.013 39.3354 294.235 39.5235 294.528 39.621C294.82 39.7184 295.217 39.7672 295.719 39.7672C296.958 39.7672 298.059 39.7324 299.02 39.6627C299.995 39.5792 301.13 39.3842 302.425 39.0778C302.286 39.5931 302.174 40.3382 302.091 41.3132C302.021 42.2742 301.986 43.27 301.986 44.3006C300.844 44.4538 299.8 44.5583 298.853 44.614C297.905 44.6558 296.861 44.6767 295.719 44.6767ZM315.942 41.0625C318.365 41.0625 320.865 40.8744 323.442 40.4984C323.121 41.0416 322.906 41.6196 322.794 42.2324C322.697 42.8452 322.606 43.66 322.523 44.6767C320.016 44.7742 317.912 44.8229 316.213 44.8229C313.887 44.8229 312.028 44.7115 310.635 44.4887C309.243 44.2658 308.024 43.9037 306.979 43.4023C306.311 43.848 305.308 44.3912 303.971 45.0318L303.866 44.614C303.63 43.5973 303.421 42.7756 303.24 42.1488C303.059 41.5081 302.843 40.9023 302.592 40.3313C302.94 40.2477 303.268 40.1363 303.574 39.997C303.88 39.8577 304.124 39.7184 304.305 39.5792V38.0541H303.052L303.073 34.607H308.149C308.776 33.4928 309.249 32.4761 309.57 31.5568C309.904 30.6237 310.162 29.7114 310.343 28.8201L314.375 29.2797L314.124 30.2825H315.002L315.378 28.9036L319.744 29.4259L319.222 30.2825H322.669V32.8312H318.992V33.2491H322.355V35.2755H318.992V35.6934H322.355V37.7198H318.992V38.1377H322.773V40.5193H309.403V35.5053C309.236 35.4635 309.02 35.4148 308.755 35.3591V40.4984C310.468 40.8744 312.864 41.0625 315.942 41.0625ZM308.212 34.1892C306.373 33.6738 304.632 33.2769 302.989 32.9984L304.222 29.3841C306.171 29.8577 307.864 30.3382 309.298 30.8256L308.212 34.1892ZM313.539 33.2491H315.085V32.8312H313.539V33.2491ZM313.539 35.6934H315.085V35.2755H313.539V35.6934ZM313.539 38.1377H315.085V37.7198H313.539V38.1377ZM339.946 36.0903C340.879 36.3131 341.903 36.4733 343.017 36.5708C343.142 37.7268 343.205 38.8131 343.205 39.8299C343.205 41.6544 342.704 42.9427 341.701 43.6948C340.712 44.4469 339.403 44.8508 337.773 44.9065C337.188 44.9343 336.562 44.9483 335.893 44.9483C335.225 44.9483 334.598 44.9343 334.013 44.9065C333.4 44.8786 332.704 44.7881 331.924 44.6349C331.158 44.4678 330.545 44.2449 330.085 43.9664C329.89 44.2449 329.556 44.4817 329.082 44.6767C328.609 44.8577 328.094 44.9483 327.536 44.9483C326.924 44.9483 326.36 44.7742 325.844 44.426C325.329 44.0639 324.918 43.5625 324.612 42.9218C324.305 42.2672 324.152 41.5151 324.152 40.6655C324.152 38.9942 324.549 37.7616 325.343 36.9677C326.137 36.1739 327.147 35.7769 328.372 35.7769C328.748 35.7769 329.096 35.8048 329.417 35.8605V35.0875C327.16 35.0875 325.621 35.0666 324.8 35.0248C324.8 34.0777 324.786 33.2908 324.758 32.6641C324.744 32.0234 324.688 31.3827 324.591 30.7421C326.485 30.8256 328.24 30.8674 329.855 30.8674C329.967 30.2128 330.099 29.6279 330.252 29.1125H335.35C335.155 29.7114 335.002 30.2616 334.89 30.763C335.615 30.7351 336.144 30.7073 336.478 30.6794C337.258 30.6237 338.01 30.5332 338.734 30.4078C339.459 30.2685 340.28 30.0875 341.2 29.8646C342.119 31.3967 343.031 33.2491 343.936 35.4218C342.752 35.5471 341.422 35.77 339.946 36.0903ZM338.066 38.3048C338.066 37.873 338.038 37.4482 337.982 37.0304C337.927 36.5987 337.801 36.0346 337.606 35.3382C337.94 35.4775 338.442 35.6585 339.11 35.8814C338.637 34.5583 338.115 33.3953 337.544 32.3925V34.8995L334.222 35.0039C334.138 36.0067 334.096 36.9399 334.096 37.8034C334.096 38.7087 334.152 39.3772 334.264 39.809C334.389 40.2407 334.688 40.4845 335.162 40.5402C335.552 40.568 335.816 40.582 335.956 40.582C336.095 40.582 336.36 40.568 336.75 40.5402C337.251 40.4845 337.592 40.3382 337.773 40.1015C337.968 39.8647 338.066 39.4956 338.066 38.9942V38.3048ZM328.665 41.2505C328.901 41.2505 329.089 41.1669 329.229 40.9998C329.368 40.8327 329.438 40.5054 329.438 40.0179C329.438 39.6001 329.403 39.2937 329.333 39.0987C329.264 38.8897 329.173 38.7644 329.062 38.7226C328.964 38.6808 328.832 38.6599 328.665 38.6599C328.497 38.6599 328.365 38.7923 328.268 39.0569C328.17 39.3215 328.121 39.6349 328.121 39.997C328.121 40.3452 328.163 40.6446 328.247 40.8953C328.344 41.1321 328.484 41.2505 328.665 41.2505Z" fill="#FF8F45"/>
<g filter="url(#filter1_d_141_3)">
<path d="M58.8819 31.1861L58.29 38.6483C58.2162 39.5753 58.3266 40.5078 58.6149 41.392L59.6587 44.5999C59.6907 44.6953 59.7197 44.7917 59.7457 44.8889C59.9363 45.6179 60.7573 48.9256 60.4709 51.0772C60.1313 53.6313 57.7562 57.6781 57.2902 58.4552C57.2372 58.5428 57.1815 58.6288 57.1231 58.713C56.6653 59.3835 54.5355 62.498 54.2026 62.8947L48.1386 57.8064L50.0833 55.4887C50.3709 55.146 50.5074 54.6978 50.4636 54.2375L49.9734 49.1001C49.7313 47.1041 51.1034 43.0008 52.1166 40.7937C52.1305 40.7621 52.135 40.727 52.1296 40.6928C52.1241 40.6587 52.1089 40.6268 52.0858 40.601L49.0326 37.0036C48.8795 36.8223 48.7626 36.6216 48.6821 36.4014L46.3373 29.8383C46.2816 29.6964 46.2605 29.5432 46.2759 29.3915C46.2913 29.2398 46.3428 29.094 46.4259 28.9662C46.5091 28.8384 46.6216 28.7323 46.7541 28.6568C46.8865 28.5813 47.0351 28.5385 47.1874 28.532C48.7389 28.4474 50.2635 29.2389 51.1277 30.5802L51.8078 32.4239L49.0217 24.5128C48.9394 24.2872 48.9053 24.0469 48.9214 23.8074C48.9376 23.5678 49.0037 23.3343 49.1155 23.1218C49.2273 22.9094 49.3823 22.7226 49.5705 22.5736C49.7588 22.4247 49.9762 22.3167 50.2087 22.2568L50.4363 22.1996C51.0881 22.0298 51.7865 22.2479 52.2364 22.7622L58.4446 29.8714C58.6006 30.0509 58.7195 30.2595 58.7946 30.4851C58.8696 30.7107 58.8993 30.949 58.8819 31.1861Z" fill="#FF8F45"/>
<path d="M44.6846 19.0634C47.2297 16.2266 53.6749 12.2551 59.0949 19.0634" stroke="#FF8F45" stroke-width="1.56343" stroke-linecap="round"/>
<path d="M40.2988 13.1113C44.3378 10.2745 54.5661 6.30296 63.1674 13.1113" stroke="#FF8F45" stroke-width="1.56343" stroke-linecap="round"/>
</g>
<defs>
<filter id="filter0_d_141_3" x="116.085" y="19.3896" width="61.7505" height="48.1665" filterUnits="userSpaceOnUse" color-interpolation-filters="sRGB">
<feFlood flood-opacity="0" result="BackgroundImageFix"/>
<feColorMatrix in="SourceAlpha" type="matrix" values="0 0 0 0 0 0 0 0 0 0 0 0 0 0 0 0 0 0 127 0" result="hardAlpha"/>
<feOffset dx="5.85844" dy="5.85844"/>
<feGaussianBlur stdDeviation="2.34338"/>
<feComposite in2="hardAlpha" operator="out"/>
<feColorMatrix type="matrix" values="0 0 0 0 0 0 0 0 0 0 0 0 0 0 0 0 0 0 0.25 0"/>
<feBlend mode="normal" in2="BackgroundImageFix" result="effect1_dropShadow_141_3"/>
<feBlend mode="normal" in="SourceGraphic" in2="effect1_dropShadow_141_3" result="shape"/>
</filter>
<filter id="filter1_d_141_3" x="39.5171" y="8.57056" width="32.3159" height="62.208" filterUnits="userSpaceOnUse" color-interpolation-filters="sRGB">
<feFlood flood-opacity="0" result="BackgroundImageFix"/>
<feColorMatrix in="SourceAlpha" type="matrix" values="0 0 0 0 0 0 0 0 0 0 0 0 0 0 0 0 0 0 127 0" result="hardAlpha"/>
<feOffset dx="4.37987" dy="4.37987"/>
<feGaussianBlur stdDeviation="1.75195"/>
<feComposite in2="hardAlpha" operator="out"/>
<feColorMatrix type="matrix" values="0 0 0 0 0 0 0 0 0 0 0 0 0 0 0 0 0 0 0.25 0"/>
<feBlend mode="normal" in2="BackgroundImageFix" result="effect1_dropShadow_141_3"/>
<feBlend mode="normal" in="SourceGraphic" in2="effect1_dropShadow_141_3" result="shape"/>
</filter>
</defs>
</svg>
