<svg width="94" height="145" viewBox="0 0 94 145" fill="none" xmlns="http://www.w3.org/2000/svg">
<g filter="url(#filter0_d_45_433)">
<path d="M42.9091 28.4732C42.2348 28.05 41.4363 27.8692 40.6455 27.9607C40.5157 27.983 40.3828 27.9782 40.255 27.9466C40.1272 27.915 40.0073 27.8573 39.903 27.777C39.7986 27.6967 39.712 27.5957 39.6487 27.4803C39.5854 27.3649 39.5467 27.2376 39.535 27.1064C39.5045 26.8465 39.5767 26.585 39.7363 26.3775C39.8959 26.1701 40.1301 26.0332 40.3892 25.996C41.7004 25.8123 43.0373 26.1497 44.105 26.9356C44.2716 27.0577 44.3948 27.2298 44.4567 27.4268C44.5186 27.6238 44.516 27.8354 44.4493 28.0308C44.3826 28.2262 44.2552 28.3953 44.0857 28.5132C43.9162 28.6312 43.7135 28.692 43.5071 28.6867C43.2902 28.6806 43.0808 28.6059 42.9091 28.4732ZM31.121 28.6867C31.3336 28.6961 31.5434 28.6361 31.7189 28.5159C32.3884 28.0425 33.2138 27.8438 34.0253 27.9607C34.1527 27.9826 34.2832 27.9772 34.4083 27.945C34.5335 27.9127 34.6503 27.8543 34.7512 27.7736C34.8521 27.6929 34.9348 27.5917 34.9937 27.4767C35.0526 27.3617 35.0865 27.2355 35.0931 27.1064C35.1111 26.9773 35.1031 26.8458 35.0698 26.7198C35.0364 26.5937 34.9783 26.4755 34.8987 26.3722C34.8192 26.2688 34.7199 26.1823 34.6066 26.1177C34.4933 26.0531 34.3683 26.0117 34.2389 25.996C32.9148 25.8678 31.5908 26.1967 30.4803 26.9356C30.3774 27.0127 30.2911 27.1097 30.2266 27.2209C30.162 27.3321 30.1205 27.4551 30.1046 27.5827C30.0886 27.7103 30.0985 27.8397 30.1337 27.9634C30.169 28.087 30.2287 28.2023 30.3095 28.3023C30.4087 28.4215 30.5327 28.5176 30.6729 28.584C30.813 28.6504 30.9659 28.6854 31.121 28.6867ZM33.0686 28.832C32.4799 28.8298 31.9074 29.0251 31.4428 29.3867C30.9782 29.7483 30.6484 30.2553 30.506 30.8265C30.4761 30.9606 30.4995 31.101 30.5712 31.2182C30.643 31.3353 30.7574 31.42 30.8904 31.4544C30.9314 31.4604 30.9732 31.4604 31.0142 31.4544H31.83C31.752 31.1701 31.7503 30.8702 31.8251 30.585C31.8998 30.2998 32.0483 30.0393 32.2557 29.8298C32.4631 29.6202 32.722 29.469 33.0064 29.3913C33.2909 29.3136 33.5907 29.3122 33.8758 29.3872C34.3025 29.5109 34.6643 29.7959 34.8843 30.1818C35.1044 30.5677 35.1655 31.0242 35.0546 31.4544H35.1871C35.3003 31.4544 35.409 31.4094 35.4891 31.3293C35.5692 31.2492 35.6142 31.1406 35.6142 31.0273V30.9504C35.4939 30.3605 35.1761 29.8292 34.7134 29.4441C34.2507 29.059 33.6705 28.8431 33.0686 28.832Z" fill="white"/>
<path fill-rule="evenodd" clip-rule="evenodd" d="M44.1457 31.4715H39.9344C39.8218 31.4762 39.712 31.4362 39.6288 31.3602C39.5456 31.2842 39.4958 31.1783 39.4902 31.0658V30.9804C39.5791 30.5373 39.7795 30.1242 40.0726 29.7801C40.3656 29.4361 40.7416 29.1725 41.1649 29.0143C41.5882 28.8561 42.0449 28.8085 42.4918 28.876C42.9386 28.9435 43.3609 29.1239 43.7186 29.4001C44.1858 29.7598 44.5146 30.2697 44.6497 30.8437C44.6808 30.9773 44.6585 31.1177 44.5874 31.235C44.5164 31.3523 44.4023 31.4372 44.2695 31.4715C44.2285 31.4776 44.1868 31.4776 44.1457 31.4715ZM42.9028 29.8272C42.7465 29.6704 42.5608 29.546 42.3563 29.4612C42.1518 29.3763 41.9326 29.3326 41.7112 29.3326C41.4898 29.3326 41.2706 29.3763 41.0661 29.4612C40.8616 29.546 40.6759 29.6704 40.5196 29.8272C40.2007 30.1395 40.0168 30.5641 40.007 31.0103C40.0156 31.1612 40.0384 31.3107 40.0754 31.4587H40.8527C40.7767 31.3219 40.7397 31.1667 40.7459 31.0103C40.7459 30.8167 40.8 30.6387 40.9082 30.4764C40.9329 30.531 40.9733 30.5769 41.0244 30.6083C41.0754 30.6396 41.1347 30.6549 41.1946 30.6521C41.2544 30.6494 41.312 30.6287 41.36 30.5928C41.4079 30.5569 41.444 30.5074 41.4635 30.4508C41.4843 30.3923 41.4864 30.3289 41.4696 30.2692C41.4528 30.2095 41.4178 30.1565 41.3695 30.1176C41.601 30.0268 41.859 30.0314 42.087 30.1304C42.2107 30.1816 42.3223 30.2579 42.4147 30.3547C42.5071 30.4514 42.5783 30.5664 42.6238 30.6922C42.6692 30.818 42.6879 30.952 42.6785 31.0855C42.6692 31.2189 42.6321 31.349 42.5697 31.4673H43.3385C43.415 31.1796 43.4151 30.877 43.3387 30.5893C43.2623 30.3016 43.112 30.0389 42.9028 29.8272Z" fill="white"/>
<path d="M36.8782 35.341C36.7201 35.3416 36.564 35.3052 36.4225 35.2347C36.281 35.1641 36.158 35.0614 36.0633 34.9348C35.9687 34.8081 35.905 34.6611 35.8774 34.5054C35.8498 34.3497 35.859 34.1897 35.9044 34.0383L36.8782 30.882C36.9139 30.7803 36.9706 30.6872 37.0446 30.6088C37.1186 30.5305 37.2082 30.4685 37.3077 30.427C37.4072 30.3856 37.5143 30.3655 37.622 30.368C37.7298 30.3706 37.8358 30.3958 37.9332 30.442C38.0197 30.4852 38.0968 30.5452 38.1599 30.6185C38.223 30.6919 38.2708 30.7771 38.3005 30.8692L39.2828 34.0297C39.3088 34.1274 39.3231 34.2277 39.3255 34.3287C39.3278 34.4608 39.3037 34.5921 39.2547 34.7148C39.2057 34.8375 39.1328 34.9492 39.0402 35.0435C38.9475 35.1377 38.837 35.2125 38.7152 35.2636C38.5933 35.3147 38.4625 35.341 38.3304 35.341H36.8782ZM40.3164 36.46C39.4708 36.8946 38.5337 37.1213 37.5829 37.1213C36.6321 37.1213 35.6951 36.8946 34.8495 36.46C34.8156 36.4403 34.7781 36.4278 34.7392 36.4234C34.7003 36.419 34.6609 36.4227 34.6236 36.4344C34.5862 36.446 34.5517 36.4653 34.5222 36.4911C34.4927 36.5168 34.4689 36.5484 34.4522 36.5838C34.426 36.6293 34.4122 36.6808 34.4122 36.7333C34.4122 36.7858 34.426 36.8374 34.4522 36.8828C34.986 37.7081 35.825 38.2883 36.7856 38.4964C37.7461 38.7046 38.75 38.5236 39.5775 37.9933C40.0186 37.703 40.3952 37.325 40.6837 36.8828C40.707 36.849 40.7231 36.8108 40.731 36.7706C40.7389 36.7303 40.7384 36.6889 40.7296 36.6488C40.7208 36.6088 40.7038 36.5709 40.6798 36.5377C40.6557 36.5045 40.6251 36.4766 40.5898 36.4557C40.5464 36.4376 40.4997 36.4286 40.4526 36.4293C40.4056 36.43 40.3592 36.4405 40.3164 36.46ZM33.0812 30.1303C33.2275 30.0676 33.3869 30.0421 33.5454 30.0559C33.7039 30.0698 33.8565 30.1226 33.9897 30.2097C34.1228 30.2967 34.2324 30.4154 34.3086 30.555C34.3849 30.6947 34.4254 30.851 34.4266 31.0101C34.4238 31.1724 34.3868 31.329 34.3156 31.4799H32.6071C32.5422 31.3357 32.5046 31.1808 32.4961 31.0229C32.4961 30.8464 32.5417 30.6798 32.6328 30.5232C32.6575 30.5561 32.6887 30.5836 32.7245 30.6038C32.7604 30.6241 32.8 30.6368 32.8409 30.641C32.8819 30.6453 32.9232 30.641 32.9625 30.6286C33.0017 30.6161 33.0379 30.5956 33.0689 30.5685C33.0998 30.5414 33.1248 30.5082 33.1424 30.4709C33.1599 30.4337 33.1695 30.3932 33.1707 30.3521C33.1718 30.3109 33.1645 30.27 33.1491 30.2318C33.1337 30.1937 33.1106 30.1591 33.0812 30.1303Z" fill="white"/>
<path d="M71.8905 120.297L67.8202 118.904L70.3828 95.3281C70.738 92.1146 69.8093 88.8908 67.7988 86.3589L59.0987 75.4292C61.249 74.5128 63.2729 73.3242 65.1208 71.8928C66.1608 71.0963 66.9105 69.9804 67.2547 68.7165C67.5988 67.4525 67.5184 66.1106 67.0257 64.8968L63.2629 55.62C62.2093 53.2143 61.0259 50.8674 59.718 48.5899L60.5295 48.402C62.3077 48.0055 63.9288 47.0915 65.1883 45.775C66.4478 44.4585 67.2892 42.7985 67.6066 41.0045L68.6658 34.9994C69.8481 34.5693 70.8367 33.7292 71.452 32.6319C72.0672 31.5346 72.2683 30.2529 72.0186 29.0199L70.7971 22.9208L71.5787 18.4875C71.6356 18.2824 71.684 18.0732 71.7239 17.8596L71.8905 16.7192L71.9247 16.5398L71.9844 16.1127C72.0357 15.7796 72.0542 15.4436 72.04 15.1048C71.9935 13.8314 71.5038 12.6143 70.6553 11.6637C69.8068 10.713 68.653 10.0886 67.3931 9.89835L67.077 9.85137H66.2868C66.1095 9.77064 65.9268 9.70214 65.7402 9.64636C65.7917 8.28238 65.3284 6.9489 64.4422 5.91076C63.556 4.87263 62.3117 4.2058 60.9566 4.04273L60.696 4.00002H60.2689C58.9903 3.99697 57.7517 4.44571 56.7718 5.26702C55.7918 6.08834 55.1335 7.22943 54.913 8.4889L54.5585 10.7782C53.7313 11.0356 52.9786 11.4895 52.3648 12.1009C51.751 12.7124 51.2943 13.4633 51.0337 14.2896C50.7731 15.1159 50.7163 15.993 50.8683 16.8459C51.0202 17.6989 51.3763 18.5024 51.9062 19.1879L52.534 19.9866L52.423 20.5803C51.705 18.8637 50.4042 17.4555 48.7499 16.6039L47.9384 16.1768C47.816 16.1167 47.7013 16.0421 47.5967 15.9547L46.1018 14.4598C44.9852 13.3524 43.5819 12.5782 42.0495 12.2244C40.5171 11.8705 38.9165 11.951 37.4273 12.4567L37.4017 12.5421C36.4493 12.133 35.4253 11.9164 34.3889 11.9046C33.3524 11.8929 32.3238 12.0863 31.3624 12.4738C30.427 12.8582 29.5814 13.4262 28.8724 14.1395L27.0358 15.9761C26.9036 16.087 26.7605 16.1843 26.6087 16.2665L26.0791 16.5014L25.968 16.5527L25.857 16.6082C24.3691 17.3678 23.1619 18.5819 22.4108 20.0742C21.6597 21.5664 21.4037 23.2592 21.6799 24.9069L22.1753 27.6104C21.2095 29.2181 20.8927 31.1334 21.2895 32.9664C21.6862 34.7994 22.7667 36.4123 24.3109 37.4766L24.3749 38.3308C24.3749 38.5016 24.4048 38.6981 24.4305 38.8647L24.439 38.933L7.26935 46.2451C5.22855 47.1096 3.56721 48.68 2.58921 50.6689C1.61122 52.6578 1.38195 54.9324 1.94333 57.0765L3.13496 61.7362C2.24899 62.619 1.70583 63.7881 1.60254 65.0345C1.49926 66.2809 1.8426 67.5234 2.57118 68.54L6.15887 73.5243L6.23148 73.7251L6.94047 76.3091L7.0686 76.7362C7.52561 78.7393 8.49514 80.5887 9.88323 82.1006C11.3012 83.2965 13.1207 83.9073 14.9658 83.809C17.1867 83.8304 19.3735 83.2538 21.2955 82.1476L20.3815 84.612C18.353 90.1253 15.5175 95.3071 11.9675 99.9878L0 115.752L2.04584 118.349L2.18678 118.524L1.65717 126.639C1.6071 127.311 1.68993 127.986 1.90094 128.626C2.11194 129.265 2.44698 129.857 2.8869 130.367C3.32681 130.878 3.86297 131.296 4.46471 131.599C5.06645 131.901 5.72197 132.083 6.39378 132.132H10.9809C11.8479 132.132 12.6979 131.91 13.4538 131.487C14.2141 131.914 15.0683 132.132 15.9396 132.132H27.5868C29.0315 132.142 30.4322 131.635 31.5369 130.704C32.6415 129.773 33.3775 128.478 33.6123 127.053C33.8472 125.627 33.5654 124.165 32.8178 122.929C32.0702 121.692 30.9059 120.764 29.5344 120.31L26.8223 119.396L31.4265 105.673C31.9988 103.964 32.964 102.41 34.2411 101.137L43.5007 91.954L49.9073 97.4166C47.198 103.798 44.5172 110.192 41.8649 116.598L40.6776 119.46L43.0267 121.476C43.4965 121.863 43.9933 122.21 44.5173 122.518L44.2525 126.639C44.1581 127.992 44.6012 129.328 45.4856 130.356C46.37 131.385 47.6243 132.023 48.9762 132.132H53.5292C54.3834 132.132 55.2205 131.918 55.9637 131.504C56.7197 131.918 57.5653 132.132 58.4238 132.132H69.9215C71.3613 132.132 72.7544 131.621 73.8526 130.69C74.9509 129.759 75.6829 128.468 75.9182 127.048C76.1536 125.627 75.8771 124.169 75.1379 122.934C74.3987 121.698 73.2448 120.765 71.8819 120.301L71.8905 120.297ZM63.0707 66.4856C63.2133 66.8337 63.2371 67.2192 63.1382 67.5821C63.0394 67.9451 62.8235 68.2653 62.524 68.493C59.4123 70.9777 55.6563 72.5231 51.6969 72.9477L51.8848 70.4876C52.4351 63.2625 51.6385 55.9981 49.5358 49.064C49.3326 48.2316 49.0464 47.4218 48.6815 46.6465L52.9013 46.2194C54.0061 47.4922 54.9742 48.8647 55.8057 50.3367C57.087 52.5662 58.2501 54.8541 59.2951 57.2003L63.0707 66.4856ZM55.4811 15.0364C55.7119 14.8618 56.0017 14.7841 56.2889 14.82C56.5761 14.8559 56.838 15.0025 57.0187 15.2286L57.9967 16.4715L58.3213 14.336L58.3939 13.9089L59.1157 9.21071C59.17 8.94505 59.3144 8.70634 59.5246 8.53507C59.7348 8.3638 59.9978 8.27053 60.2689 8.27108H60.4312C60.7446 8.31058 61.0295 8.47242 61.224 8.72127C61.4184 8.97013 61.5065 9.28579 61.4691 9.59938L60.837 13.6697C60.9236 13.3938 61.1072 13.1587 61.3538 13.0078C61.6004 12.8568 61.8934 12.8004 62.1784 12.8489C62.4635 12.8973 62.7213 13.0474 62.9042 13.2714C63.0871 13.4953 63.1827 13.7779 63.1732 14.0669C63.2857 13.9329 63.4263 13.8251 63.5849 13.7513C63.7436 13.6775 63.9165 13.6395 64.0915 13.6398H64.2709C64.5772 13.6884 64.8527 13.8541 65.0391 14.1019C65.2256 14.3497 65.3085 14.6603 65.2703 14.9681H65.4241C65.4881 14.7084 65.6373 14.4776 65.8479 14.3127C66.0585 14.1478 66.3183 14.0582 66.5858 14.0584H66.7567C67.0374 14.102 67.2935 14.2441 67.4789 14.4594C67.6644 14.6746 67.7672 14.9488 67.7689 15.2329C67.7761 15.311 67.7761 15.3897 67.7689 15.4678L67.7262 15.754L67.6749 16.0615L67.5212 17.1079C67.5036 17.2048 67.475 17.2994 67.4358 17.3898L66.4534 23.019L56.6001 21.5114L56.9119 19.773C56.9036 19.06 56.6637 18.369 56.2285 17.8041L55.2846 16.5996C55.1922 16.4852 55.1238 16.3533 55.0835 16.2118C55.0433 16.0703 55.032 15.9222 55.0503 15.7762C55.0687 15.6303 55.1163 15.4895 55.1903 15.3624C55.2643 15.2353 55.3632 15.1244 55.4811 15.0364ZM54.1656 35.23L55.3316 28.6996L65.0952 30.6813L63.4082 40.2314C63.2352 41.1982 62.7812 42.0926 62.1029 42.8028C61.4245 43.5131 60.5519 44.0077 59.5941 44.2249L53.9819 45.5062C53.961 45.3738 53.9016 45.2505 53.8111 45.1517L49.634 41.0386C49.97 40.1759 50.1835 39.2847 50.2746 38.365V38.2625L50.4369 36.0671L54.1656 35.23ZM26.7667 28.849L26.9376 29.7972C26.9868 30.0689 27.1286 30.3152 27.3388 30.4943C27.549 30.6733 27.8147 30.7741 28.0908 30.7796C28.0908 30.7796 27.984 29.3829 27.9327 28.3621V28.0973C27.9263 27.8498 27.9711 27.6036 28.0645 27.3743C28.1578 27.1449 28.2977 26.9374 28.4752 26.7648L28.8168 26.4658C29.0474 26.2633 29.2315 26.0135 29.3568 25.7334C29.4821 25.4534 29.5456 25.1496 29.5429 24.8428V23.3052C29.5448 23.0908 29.6168 22.8829 29.7479 22.7133C29.879 22.5436 30.062 22.4215 30.269 22.3656C32.5793 21.8307 34.945 21.5727 37.3163 21.5968C39.6867 21.588 42.0507 21.8458 44.3635 22.3656C44.5705 22.4215 44.7535 22.5436 44.8846 22.7133C45.0157 22.8829 45.0877 23.0908 45.0896 23.3052V24.8855C45.0923 25.1915 45.1582 25.4935 45.2831 25.7728C45.4081 26.0521 45.5894 26.3026 45.8157 26.5085L46.1573 26.8075C46.3486 26.9774 46.4982 27.189 46.5945 27.426C46.6908 27.663 46.7312 27.9191 46.7126 28.1742C46.6272 29.1993 46.5417 30.7369 46.5417 30.7369C46.8104 30.7219 47.0661 30.6168 47.2676 30.4385C47.4691 30.2603 47.6046 30.0193 47.6522 29.7545L47.8658 28.58C48.5113 28.871 49.0373 29.3748 49.356 30.0071C49.6747 30.6394 49.7667 31.3619 49.6167 32.054C49.4667 32.746 49.0838 33.3655 48.5319 33.8091C47.98 34.2527 47.2925 34.4935 46.5844 34.4911H46.2598L46.183 35.529L46.0079 37.972C45.8797 39.4114 45.2391 40.7568 44.2055 41.7647L43.9791 41.9655C43.5064 42.3812 42.9825 42.7101 42.4074 42.9521L42.2792 42.9948L42.1938 43.0204C41.5579 43.2575 40.8863 43.3846 40.2078 43.3963H34.3906C33.8673 43.3874 33.3475 43.3098 32.8445 43.1656C32.6994 43.1206 32.5568 43.0678 32.4173 43.0076C32.0583 42.8797 31.7134 42.7151 31.388 42.5164L31.3325 42.4823L31.2812 42.4524L31.0677 42.32C30.438 41.8541 29.914 41.2602 29.5301 40.5774C29.0536 39.7995 28.7614 38.9229 28.6759 38.0147L28.4196 34.5039C27.7627 34.4906 27.1271 34.268 26.6053 33.8686C26.0835 33.4691 25.7027 32.9137 25.5184 32.2829C25.334 31.6522 25.3557 30.9791 25.5802 30.3615C25.8047 29.744 26.2204 29.2141 26.7667 28.849ZM21.2827 76.7789C20.3427 77.7848 19.1838 78.5608 17.8957 79.0468C16.9561 79.3671 15.9652 79.5337 14.9701 79.5423C14.1896 79.6041 13.4116 79.396 12.7662 78.9529C11.9887 77.9103 11.436 76.7177 11.1432 75.4506L11.0578 75.1772L10.3061 72.4352C10.2407 72.2638 10.1865 72.0883 10.1438 71.9099L10.0754 71.6493L19.728 69.0098L19.8305 69.4369L19.8647 69.5693C20.9453 70.1374 22.0216 71.0557 21.6372 72.3498C21.1845 73.866 21.035 74.4853 21.035 74.4853C21.3471 74.7727 21.5443 75.1637 21.5899 75.5855C21.6354 76.0074 21.5263 76.4315 21.2827 76.7789ZM54.597 97.438C54.7505 97.0858 54.7869 96.6936 54.7008 96.3191C54.6147 95.9446 54.4106 95.6077 54.1186 95.358L43.4708 86.2948L42.9968 86.4614L31.2599 98.1086C29.5088 99.8469 28.1933 101.974 27.4159 104.314L21.4792 122.001V122.031C18.7867 122.334 16.0605 122.043 13.4926 121.179C10.9246 120.315 8.57725 118.899 6.61587 117.029C6.19142 116.608 5.78939 116.165 5.41143 115.701L15.3801 102.563C19.1795 97.5516 22.215 92.0044 24.3878 86.1026L27.2024 78.483C26.423 78.1835 25.6701 77.8192 24.9515 77.3939C24.753 77.2806 24.5961 77.1066 24.5038 76.8975C24.4116 76.6884 24.3888 76.4552 24.439 76.2322L26.3567 67.9207C27.177 64.2993 26.9984 60.5231 25.8399 56.9953L24.9216 54.232L16.828 57.6915L17.9128 61.9327L8.15345 64.1664L6.07345 56.013C5.77711 54.858 5.90353 53.6351 6.42988 52.5652C6.95622 51.4953 7.8478 50.6488 8.9436 50.1787L25.9125 42.9179C26.724 44.2206 27.8217 45.3182 29.1244 46.1255L28.2701 50.6571C28.2268 50.835 28.2418 51.0222 28.3129 51.191C28.4063 51.4264 28.5885 51.6156 28.8202 51.7179C29.0519 51.8201 29.3146 51.8272 29.5515 51.7377L37.3163 48.7906C39.5826 52.2683 40.8081 56.3212 40.8484 60.472C40.8484 62.1121 40.8484 63.97 40.7288 65.2299L40.0156 72.9947H51.667L64.446 88.9941C65.7658 90.6513 66.3808 92.7654 66.1544 94.8711L63.327 120.852C58.559 121.9 53.5924 121.588 48.9933 119.951C47.8598 119.544 46.7942 118.968 45.8327 118.242C45.8327 118.242 52.5511 102.017 54.5756 97.438H54.597ZM46.0975 53.9031C46.0975 54.1749 45.9896 54.4357 45.7973 54.6279C45.6051 54.8201 45.3444 54.9281 45.0725 54.9281C44.8006 54.9281 44.5399 54.8201 44.3477 54.6279C44.1554 54.4357 44.0474 54.1749 44.0474 53.9031C44.0474 53.6312 44.1554 53.3705 44.3477 53.1783C44.5399 52.986 44.8006 52.878 45.0725 52.878C45.3444 52.878 45.6051 52.986 45.7973 53.1783C45.9896 53.3705 46.0975 53.6312 46.0975 53.9031ZM46.1958 61.8643C45.9239 61.8643 45.6632 61.7563 45.471 61.5641C45.2787 61.3719 45.1707 61.1111 45.1707 60.8393C45.1707 60.5674 45.2787 60.3067 45.471 60.1145C45.6632 59.9222 45.9239 59.8142 46.1958 59.8142C46.4676 59.8142 46.7284 59.9222 46.9206 60.1145C47.1128 60.3067 47.2208 60.5674 47.2208 60.8393C47.2208 61.1111 47.1128 61.3719 46.9206 61.5641C46.7284 61.7563 46.4676 61.8643 46.1958 61.8643ZM47.4771 68.3692C47.4771 68.641 47.3691 68.9017 47.1769 69.094C46.9846 69.2862 46.7239 69.3942 46.452 69.3942C46.1802 69.3942 45.9195 69.2862 45.7272 69.094C45.535 68.9017 45.427 68.641 45.427 68.3692C45.427 68.0973 45.535 67.8366 45.7272 67.6443C45.9195 67.4521 46.1802 67.3441 46.452 67.3441C46.7239 67.3441 46.9846 67.4521 47.1769 67.6443C47.3691 67.8366 47.4771 68.0973 47.4771 68.3692Z" fill="white"/>
</g>
<defs>
<filter id="filter0_d_45_433" x="0" y="0" width="94" height="144.132" filterUnits="userSpaceOnUse" color-interpolation-filters="sRGB">
<feFlood flood-opacity="0" result="BackgroundImageFix"/>
<feColorMatrix in="SourceAlpha" type="matrix" values="0 0 0 0 0 0 0 0 0 0 0 0 0 0 0 0 0 0 127 0" result="hardAlpha"/>
<feOffset dx="10" dy="4"/>
<feGaussianBlur stdDeviation="4"/>
<feComposite in2="hardAlpha" operator="out"/>
<feColorMatrix type="matrix" values="0 0 0 0 0 0 0 0 0 0 0 0 0 0 0 0 0 0 0.25 0"/>
<feBlend mode="normal" in2="BackgroundImageFix" result="effect1_dropShadow_45_433"/>
<feBlend mode="normal" in="SourceGraphic" in2="effect1_dropShadow_45_433" result="shape"/>
</filter>
</defs>
</svg>
