<svg width="143" height="111" viewBox="0 0 143 111" fill="none" xmlns="http://www.w3.org/2000/svg">
<g filter="url(#filter0_d_43_314)">
<path d="M80.6947 37.4703L62.8313 50.1956C60.6116 51.776 58.7266 53.7801 57.285 56.0924L52.0509 64.4767C51.8968 64.7281 51.7351 64.9747 51.5659 65.2162C50.2885 67.0169 44.4109 75.0891 39.0423 78.4985C32.6701 82.5465 19.1141 84.8371 16.4922 85.2549C16.1957 85.301 15.8978 85.3378 15.599 85.3653C13.2317 85.6006 2.23032 86.6858 0.712891 86.6858V63.4923H9.57735C10.8883 63.4923 12.1512 62.9545 13.102 61.9893L23.7096 51.2136C27.7336 46.911 39.5273 42.2627 46.3893 40.3804C46.4867 40.3519 46.5737 40.296 46.6402 40.2193C46.7066 40.1427 46.7495 40.0486 46.7639 39.9482L49.088 26.3201C49.2065 25.6351 49.437 24.9948 49.7795 24.3994L60.0942 6.77609C60.3077 6.38364 60.6118 6.04788 60.9814 5.79677C61.3509 5.54566 61.775 5.38646 62.2185 5.33243C62.662 5.27841 63.1119 5.33112 63.5309 5.48618C63.9499 5.64123 64.3258 5.89415 64.6273 6.22386C67.7389 9.54683 68.8338 14.4593 67.4508 18.9251L64.5936 23.924L77.1028 2.77123C77.4541 2.16179 77.9291 1.6326 78.4972 1.2177C79.0652 0.802793 79.7139 0.511348 80.4013 0.3621C81.0887 0.212853 81.7998 0.209106 82.4888 0.351099C83.1778 0.493093 83.8294 0.777684 84.4018 1.18658L84.9588 1.58995C86.5675 2.73282 87.3934 4.71123 87.0861 6.68965L82.822 34.0129C82.7129 34.701 82.4688 35.3608 82.1037 35.9541C81.7386 36.5475 81.2598 37.0628 80.6947 37.4703Z" fill="white"/>
<path d="M96.7525 24.2573C99.7937 33.3811 99.8258 52.7811 75.6238 57.391" stroke="white" stroke-width="6.72277" stroke-linecap="round"/>
<path d="M112.986 24.2573C117.396 37.4802 117.443 65.5961 82.3467 72.2771" stroke="white" stroke-width="6.72277" stroke-linecap="round"/>
</g>
<defs>
<filter id="filter0_d_43_314" x="0.712891" y="0.247314" width="141.877" height="110.667" filterUnits="userSpaceOnUse" color-interpolation-filters="sRGB">
<feFlood flood-opacity="0" result="BackgroundImageFix"/>
<feColorMatrix in="SourceAlpha" type="matrix" values="0 0 0 0 0 0 0 0 0 0 0 0 0 0 0 0 0 0 127 0" result="hardAlpha"/>
<feOffset dx="13.4603" dy="13.4603"/>
<feGaussianBlur stdDeviation="5.38411"/>
<feComposite in2="hardAlpha" operator="out"/>
<feColorMatrix type="matrix" values="0 0 0 0 0 0 0 0 0 0 0 0 0 0 0 0 0 0 0.25 0"/>
<feBlend mode="normal" in2="BackgroundImageFix" result="effect1_dropShadow_43_314"/>
<feBlend mode="normal" in="SourceGraphic" in2="effect1_dropShadow_43_314" result="shape"/>
</filter>
</defs>
</svg>
