<svg width="495" height="80" viewBox="0 0 495 80" fill="none" xmlns="http://www.w3.org/2000/svg">
<rect x="4" y="4" width="463.397" height="63.5707" rx="21.7407" fill="white" fill-opacity="0.95" stroke="#FF8F45" stroke-width="7.24689"/>
<g filter="url(#filter0_d_141_2)">
<path d="M25.321 37.2291L25.7539 31.7713C25.8078 31.0932 25.7271 30.4112 25.5162 29.7645L24.7528 27.4183C24.7294 27.3485 24.7082 27.278 24.6892 27.2069C24.5498 26.6737 23.9493 24.2545 24.1588 22.6808C24.4071 20.8127 26.1443 17.8529 26.4851 17.2845C26.5239 17.2204 26.5646 17.1575 26.6073 17.096C26.9422 16.6055 28.4999 14.3276 28.7434 14.0375L33.1786 17.7591L31.7562 19.4542C31.5459 19.7049 31.4461 20.0327 31.4781 20.3694L31.8366 24.1268C32.0137 25.5867 31.0102 28.5879 30.2691 30.2021C30.2589 30.2253 30.2556 30.2509 30.2596 30.2759C30.2636 30.3009 30.2747 30.3242 30.2916 30.3431L32.5247 32.9742C32.6367 33.1068 32.7222 33.2536 32.7811 33.4147L34.496 38.2149C34.5368 38.3187 34.5522 38.4307 34.5409 38.5417C34.5297 38.6526 34.4921 38.7593 34.4312 38.8528C34.3704 38.9462 34.2881 39.0238 34.1912 39.0791C34.0944 39.1343 33.9857 39.1656 33.8743 39.1704C32.7395 39.2322 31.6245 38.6533 30.9924 37.6723L30.4949 36.3238L32.5327 42.11C32.5929 42.275 32.6178 42.4507 32.606 42.6259C32.5942 42.8011 32.5459 42.9719 32.4641 43.1273C32.3824 43.2827 32.269 43.4193 32.1313 43.5283C31.9936 43.6372 31.8346 43.7162 31.6645 43.76L31.498 43.8018C31.0214 43.9261 30.5105 43.7666 30.1815 43.3903L25.6408 38.1907C25.5267 38.0594 25.4397 37.9069 25.3848 37.7419C25.3299 37.5768 25.3082 37.4026 25.321 37.2291Z" fill="#FF8F45"/>
<path d="M35.7046 46.0952C33.8431 48.1701 29.1291 51.0748 25.1649 46.0952" stroke="#FF8F45" stroke-width="2.50937" stroke-linecap="round"/>
<path d="M38.9124 50.4487C35.9582 52.5236 28.4773 55.4283 22.1863 50.4487" stroke="#FF8F45" stroke-width="2.50937" stroke-linecap="round"/>
</g>
<g filter="url(#filter1_d_141_2)">
<path d="M61.3025 30.4448C59.6151 30.1463 57.9471 29.9256 56.2986 29.7828C54.6631 29.64 52.9237 29.5686 51.0806 29.5686C49.8994 29.5686 48.9907 29.5816 48.3547 29.6076L48.5689 26.0445H49.776C51.9827 26.0445 54.0595 26.1354 56.0066 26.3171C57.9536 26.4858 59.998 26.7779 62.1397 27.1932L61.3025 30.4448ZM49.8929 41.3482C49.5294 40.3747 49.1595 39.531 48.7831 38.8171C48.4196 38.1031 47.9069 37.4347 47.2449 36.8116C50.2433 36.7597 52.5084 36.6818 54.0401 36.578C55.5717 36.4741 56.6426 36.3184 57.2527 36.1107C57.8757 35.89 58.1872 35.5785 58.1872 35.1761C58.1872 34.6179 57.9406 34.2675 57.4474 34.1247C56.9671 33.9689 56.2791 33.8911 55.3835 33.8911C52.5279 33.8911 49.6138 34.5855 46.6413 35.9744L45.8041 31.4962C48.0756 30.977 49.8215 30.6265 51.0416 30.4448C52.2618 30.2631 53.6247 30.1722 55.1304 30.1722C57.8173 30.1722 59.8617 30.5616 61.2636 31.3404C62.6654 32.1063 63.3664 33.3654 63.3664 35.1177C63.3664 37.0647 62.2955 38.551 60.1537 39.5764C58.012 40.6018 54.5917 41.1924 49.8929 41.3482ZM79.3515 30.3864C78.1833 30.4383 77.1903 30.6914 76.3726 31.1457C75.5548 31.6 74.9382 32.1712 74.5229 32.8591C74.1205 33.5341 73.9193 34.235 73.9193 34.9619C73.9193 35.3513 74.0037 35.6564 74.1724 35.877C74.3541 36.0977 74.7176 36.2664 75.2628 36.3833C75.8079 36.5001 76.6257 36.5585 77.716 36.5585C78.9232 36.5585 80.2796 36.5066 81.7853 36.4027C81.4478 37.1686 81.2337 37.8825 81.1428 38.5445C81.0649 39.1935 81.0195 39.9788 81.0065 40.9004C80.6431 40.9134 80.1174 40.9199 79.4294 40.9199C76.4959 40.9199 74.2438 40.7252 72.6732 40.3357C71.1156 39.9334 70.0642 39.3947 69.519 38.7197C68.9868 38.0318 68.7207 37.1621 68.7207 36.1107C68.7207 34.9814 68.9544 33.956 69.4216 33.0344C69.8889 32.0998 70.5444 31.2755 71.3881 30.5616L65.5276 31.4573V26.9401C66.527 26.9401 68.2275 26.9077 70.6288 26.8428L74.3866 26.7454C75.7236 26.7195 76.9567 26.687 78.086 26.6481C79.2152 26.5962 80.7664 26.5183 82.7394 26.4144L82.7978 30.3864H79.3515ZM82.35 34.884C82.0644 33.8975 81.6685 32.9565 81.1623 32.0608L82.8173 31.5936C83.3235 32.4762 83.7259 33.4173 84.0244 34.4168L82.35 34.884ZM80.1888 35.4876C79.9032 34.5011 79.5073 33.5601 79.0011 32.6644L80.656 32.1971C81.1623 33.0798 81.5647 34.0209 81.8632 35.0203L80.1888 35.4876ZM102.716 30.5422C102.664 31.5806 102.638 32.3075 102.638 32.7228C102.638 33.1642 102.664 33.8262 102.716 34.7088C101.067 34.7607 99.5812 34.884 98.2573 35.0787C98.2573 35.559 98.2118 36.0198 98.121 36.4611L93.9348 37.0063C94.0517 36.7467 94.1425 36.4547 94.2074 36.1301C93.7401 36.3898 93.4351 36.6169 93.2923 36.8116C93.2144 36.9284 93.1755 37.0193 93.1755 37.0842C93.1755 37.3568 93.6298 37.4931 94.5384 37.4931C94.9019 37.4931 95.3237 37.4736 95.804 37.4347L97.5758 37.3178C97.8614 37.3049 98.4065 37.2789 99.2113 37.24C100.029 37.188 100.97 37.1231 102.035 37.0453C101.71 37.7462 101.476 38.3822 101.334 38.9534C101.191 39.5115 101.055 40.1995 100.925 41.0172C98.121 41.134 96.1869 41.1924 95.1225 41.1924C93.5519 41.1924 92.2734 41.0821 91.2869 40.8614C90.3133 40.6278 89.5865 40.2514 89.1062 39.7322C88.6259 39.2 88.3858 38.4796 88.3858 37.571C88.3858 36.7792 88.7557 36.0133 89.4956 35.2735C90.2484 34.5206 91.2998 33.8197 92.6498 33.1707C92.3642 33.0798 92.0203 33.0344 91.6179 33.0344C91.3193 33.0344 90.8196 33.2745 90.1186 33.7548C89.4307 34.235 88.6778 34.897 87.8601 35.7407C87.0553 36.5845 86.3219 37.5255 85.6599 38.5639C85.1797 36.8895 84.4982 35.3903 83.6155 34.0663C85.2121 32.8591 86.5945 31.6844 87.7627 30.5422C86.5685 30.5162 85.6794 30.4902 85.0953 30.4643C85.0953 28.8158 85.0239 27.5827 84.8811 26.7649C87.3474 26.8428 89.3723 26.8817 90.9559 26.8817L91.3453 26.3755L91.5984 26.0445L96.7191 26.1613L96.1545 26.8428C98.0626 26.7779 99.6721 26.6935 100.983 26.5897C100.866 27.2906 100.808 28.3355 100.808 29.7244V30.3085C98.6661 30.4643 95.9857 30.5551 92.7666 30.5811L92.1241 31.1652C92.6693 31.0873 93.182 31.0484 93.6623 31.0484C94.8305 31.0484 95.791 31.282 96.5439 31.7493C98.5558 31.1912 100.613 30.7888 102.716 30.5422ZM122.147 30.2696H115.255V31.1263C115.579 31.2301 116.618 31.5611 118.37 32.1193L121.485 33.1122L120.512 36.7337L119.655 36.3833C117.747 35.6174 116.28 35.0463 115.255 34.6699V40.9004H110.601V30.2696H104.118V26.5507H122.147V30.2696ZM130.578 27.4658C133.226 26.9596 135.842 26.7065 138.425 26.7065C139.203 26.7065 140.08 26.7389 141.053 26.8038C141.053 27.7254 141.066 28.5237 141.092 29.1987C141.118 29.8607 141.183 30.5292 141.287 31.2041C139.794 31.0224 138.425 30.9316 137.179 30.9316C135.18 30.9316 133.057 31.1652 130.812 31.6325L130.578 27.4658ZM124.386 40.9199C124.153 39.8036 123.978 38.7522 123.861 37.7657C123.757 36.7662 123.705 35.6434 123.705 34.3973C123.705 32.3594 123.867 29.8802 124.192 26.9596H129.157C128.767 30.2047 128.573 32.7358 128.573 34.553C128.573 35.7472 128.644 36.8116 128.787 37.7462C128.943 38.6678 129.176 39.5894 129.488 40.511L124.386 40.9199ZM135.874 40.842C133.771 40.842 132.24 40.4331 131.279 39.6153C130.318 38.7976 129.838 37.545 129.838 35.8576C129.838 35.3773 129.877 34.8646 129.955 34.3194C131.474 34.1896 132.837 33.8067 134.044 33.1707C133.979 33.7288 133.946 34.1572 133.946 34.4557C133.946 34.9619 134.011 35.3448 134.141 35.6044C134.284 35.8641 134.492 36.0393 134.764 36.1301C135.037 36.221 135.407 36.2664 135.874 36.2664C137.029 36.2664 138.055 36.234 138.95 36.1691C139.859 36.0912 140.917 35.9095 142.124 35.6239C141.994 36.1042 141.89 36.7986 141.812 37.7072C141.748 38.6029 141.715 39.531 141.715 40.4915C140.651 40.6343 139.677 40.7316 138.795 40.7836C137.912 40.8225 136.938 40.842 135.874 40.842ZM147.498 35.9744V37.7851C147.498 38.8755 147.4 39.6283 147.206 40.0437C147.011 40.4591 146.667 40.7187 146.174 40.8225C145.694 40.9134 144.733 40.9913 143.292 41.0562C143.227 40.2254 143.149 39.5504 143.059 39.0312C142.968 38.512 142.799 37.9669 142.552 37.3957C142.955 37.3957 143.234 37.3763 143.39 37.3373C143.558 37.2854 143.656 37.214 143.682 37.1231C143.708 37.0323 143.721 36.87 143.721 36.6364V36.3638L142.825 36.4417C142.773 34.923 142.676 33.7093 142.533 32.8007L143.721 32.7423V31.2626H142.825V27.8163H143.721V26.2197H147.498V27.8163H148.218V31.2626H147.498V32.5087L148.257 32.4502C148.231 33.2161 148.218 34.3648 148.218 35.8965L147.498 35.9744ZM160.368 37.6878C160.757 37.9604 161.198 38.2005 161.692 38.4082C161.185 38.6678 160.705 39.0896 160.251 39.6738C159.81 40.2449 159.453 40.7771 159.18 41.2703C158.051 40.2059 157.155 38.843 156.493 37.1815C156.493 37.532 156.532 37.8435 156.61 38.1161C156.688 38.3887 156.772 38.6483 156.863 38.8949C156.967 39.1286 157.032 39.2843 157.058 39.3622C156.383 39.8165 155.753 40.1865 155.169 40.472C154.585 40.7446 153.845 41.0172 152.95 41.2898C152.807 40.9393 152.657 40.5889 152.502 40.2384C152.346 39.8749 152.184 39.5569 152.015 39.2843C151.976 39.6997 151.892 40.3357 151.762 41.1924C151.333 41.0237 150.717 40.8809 149.912 40.7641C149.12 40.6473 148.452 40.5889 147.907 40.5889C148.166 39.4206 148.342 38.2135 148.432 36.9674C148.536 35.7083 148.588 34.3778 148.588 32.9759L148.569 29.7244V26.395H161.108V29.2376H152.249V30.5422V32.4697H161.224V35.1177H160.076L161.302 37.1037C160.848 37.4022 160.536 37.5969 160.368 37.6878ZM160.66 29.666V32.1193H152.657V29.666H160.66ZM152.229 35.1177C152.203 36.5196 152.158 37.571 152.093 38.2719L152.677 38.1745V35.1177H152.229ZM155.461 37.3957L156.396 36.9674C156.136 36.2664 155.935 35.6499 155.792 35.1177H155.461V37.3957ZM159.803 35.1177H158.615C158.667 35.3124 158.739 35.5266 158.83 35.7602L159.803 35.1177ZM166.053 40.7446C165.949 39.849 165.748 39.0247 165.45 38.2719C165.151 37.5061 164.723 36.7337 164.164 35.9549C165.462 36.0068 166.384 36.0328 166.929 36.0328C169.577 36.0328 171.745 35.7927 173.432 35.3124C173.991 35.1566 174.347 35.0138 174.503 34.884C174.672 34.7542 174.756 34.553 174.756 34.2805C174.756 33.8002 174.503 33.4367 173.997 33.1901C173.504 32.9305 172.783 32.8007 171.836 32.8007C170.81 32.8007 169.499 32.937 167.903 33.2096C166.306 33.4822 164.976 33.8002 163.911 34.1636L162.996 29.8412C164.788 29.4648 166.481 29.1727 168.078 28.9651C169.688 28.7444 171.057 28.6341 172.186 28.6341C173.77 28.6341 175.126 28.8417 176.256 29.2571C177.398 29.6725 178.268 30.2761 178.865 31.0679C179.475 31.8596 179.78 32.8007 179.78 33.8911C179.78 35.7083 179.17 37.1166 177.949 38.1161C176.742 39.1026 175.152 39.7776 173.179 40.141C171.206 40.5045 168.831 40.7057 166.053 40.7446ZM196.174 30.3864C195.006 30.4383 194.013 30.6914 193.195 31.1457C192.377 31.6 191.76 32.1712 191.345 32.8591C190.943 33.5341 190.742 34.235 190.742 34.9619C190.742 35.3513 190.826 35.6564 190.995 35.877C191.176 36.0977 191.54 36.2664 192.085 36.3833C192.63 36.5001 193.448 36.5585 194.538 36.5585C195.745 36.5585 197.102 36.5066 198.608 36.4027C198.27 37.1686 198.056 37.8825 197.965 38.5445C197.887 39.1935 197.842 39.9788 197.829 40.9004C197.465 40.9134 196.94 40.9199 196.252 40.9199C193.318 40.9199 191.066 40.7252 189.495 40.3357C187.938 39.9334 186.886 39.3947 186.341 38.7197C185.809 38.0318 185.543 37.1621 185.543 36.1107C185.543 34.9814 185.777 33.956 186.244 33.0344C186.711 32.0998 187.367 31.2755 188.21 30.5616L182.35 31.4573V26.9401C183.349 26.9401 185.05 26.9077 187.451 26.8428L191.209 26.7454C192.546 26.7195 193.779 26.687 194.908 26.6481C196.037 26.5962 197.589 26.5183 199.562 26.4144L199.62 30.3864H196.174ZM221.368 25.8887C221.368 26.356 221.252 26.7909 221.018 27.1932C220.797 27.5827 220.486 27.8942 220.083 28.1278C219.694 28.3485 219.272 28.4588 218.818 28.4588C218.636 28.4588 218.454 28.4394 218.273 28.4004L219.694 31.3599C218.733 33.4627 217.598 35.1566 216.287 36.4417C214.989 37.7267 213.437 38.7327 211.633 39.4596C209.842 40.1865 207.59 40.803 204.877 41.3093L204.429 40.511C203.962 39.6543 203.521 38.9014 203.105 38.2524C202.69 37.6034 202.242 37.0128 201.762 36.4806C205.137 36.234 207.759 35.7148 209.628 34.923C211.51 34.1312 212.951 33.0473 213.95 31.6714L211.088 31.6909C206.947 31.7169 203.91 31.7753 201.976 31.8661V27.0959H216.559C216.365 26.7065 216.267 26.3041 216.267 25.8887C216.267 25.4344 216.378 25.0126 216.598 24.6232C216.832 24.2208 217.143 23.9092 217.533 23.6886C217.935 23.4549 218.363 23.3381 218.818 23.3381C219.272 23.3381 219.694 23.4549 220.083 23.6886C220.486 23.9092 220.797 24.2208 221.018 24.6232C221.252 25.0126 221.368 25.4344 221.368 25.8887ZM218.818 24.4869C218.428 24.4869 218.097 24.6297 217.825 24.9152C217.552 25.1878 217.416 25.5123 217.416 25.8887C217.416 26.2781 217.552 26.6156 217.825 26.9012C218.097 27.1738 218.428 27.3101 218.818 27.3101C219.207 27.3101 219.538 27.1738 219.811 26.9012C220.083 26.6156 220.22 26.2781 220.22 25.8887C220.22 25.5123 220.083 25.1878 219.811 24.9152C219.538 24.6297 219.207 24.4869 218.818 24.4869ZM235.621 28.4199C236.205 29.1338 236.808 29.7568 237.431 30.289C238.067 30.8212 238.781 31.321 239.573 31.7883C238.197 34.0079 236.322 35.9744 233.946 37.6878C231.584 39.3882 228.631 40.5564 225.087 41.1924L221.466 38.6418V26.7649H226.703V35.8186C228.456 35.4162 230.098 34.592 231.629 33.3459C233.174 32.0998 234.504 30.4578 235.621 28.4199ZM259.083 28.2641C258.2 29.4323 257.324 30.3994 256.454 31.1652C255.597 31.9181 254.572 32.5995 253.378 33.2096V40.9783H247.984V34.9035C246.18 35.228 243.876 35.4876 241.072 35.6823C240.969 34.6699 240.845 33.7937 240.702 33.0538C240.573 32.314 240.339 31.5416 240.002 30.7369C242.052 30.7498 243.863 30.6849 245.434 30.5422C247.004 30.3994 248.296 30.1398 249.308 29.7633C251.398 28.9715 253.021 27.7774 254.176 26.1808L259.083 28.2641ZM263.444 41.4066C263.132 40.524 262.808 39.7127 262.47 38.9728C262.146 38.2329 261.743 37.4476 261.263 36.6169H262.178C264.826 36.6169 266.838 36.4547 268.214 36.1301C269.603 35.7927 270.544 35.2994 271.037 34.6504C271.531 33.9884 271.777 33.0928 271.777 31.9635C271.777 31.4962 271.693 30.8018 271.524 29.8802C271.355 28.9456 271.096 27.8877 270.745 26.7065H276.508C276.742 27.9396 276.904 28.9196 276.995 29.6465C277.099 30.3604 277.151 31.0679 277.151 31.7688C277.151 34.0144 276.632 35.7992 275.593 37.1231C274.555 38.4471 273.049 39.4336 271.076 40.0826C269.103 40.7187 266.559 41.16 263.444 41.4066ZM260.796 26.7649H266.189V35.3903H260.796V26.7649ZM297.498 36.6169C296.459 38.3952 295.687 39.9399 295.181 41.2509C293.493 40.472 291.546 39.4791 289.339 38.2719C287.276 39.531 285.004 40.5045 282.525 41.1924C282.032 40.4006 281.532 39.6608 281.026 38.9728C280.519 38.2849 279.877 37.5061 279.098 36.6364C281.837 36.3119 284.167 35.7148 286.088 34.8451C288.022 33.9624 289.632 32.7877 290.917 31.321H280.266V27.1154L295.064 27.0375L296.913 31.1263C295.784 32.7488 294.499 34.2091 293.058 35.5071C294.564 36.0782 296.044 36.4482 297.498 36.6169ZM317.007 32.7423C316.566 33.4432 316.228 34.1377 315.994 34.8256C315.761 35.5006 315.501 36.3898 315.216 37.4931C312.542 36.5325 309.4 35.6888 305.792 34.9619V41.1535H300.301C300.392 38.9728 300.444 36.7921 300.457 34.6115C300.483 32.4308 300.496 29.7049 300.496 26.4339H305.792V30.4643C307.505 30.672 309.374 30.9835 311.399 31.3988C313.437 31.8142 315.306 32.262 317.007 32.7423ZM335.367 37.1815C335.64 37.1556 336.166 37.0842 336.945 36.9674C336.646 37.4736 336.445 38.0123 336.341 38.5834C336.25 39.1545 336.166 39.9139 336.088 40.8614C333.751 40.9523 331.791 40.9977 330.208 40.9977C328.04 40.9977 326.307 40.8939 325.009 40.6862C323.711 40.4785 322.575 40.141 321.602 39.6738C320.979 40.0891 320.044 40.5954 318.798 41.1924L318.701 40.803C318.48 39.8555 318.285 39.0896 318.117 38.5055C317.948 37.9084 317.747 37.3438 317.513 36.8116C317.838 36.7337 318.143 36.6299 318.428 36.5001C318.714 36.3703 318.941 36.2405 319.11 36.1107V34.6893H317.941L317.961 31.4767H323.257V36.9674C323.361 36.9933 323.737 37.0647 324.386 37.1815C323.984 36.6364 323.653 36.221 323.393 35.9354C324.782 35.9354 326.074 35.8121 327.268 35.5655H323.607V33.9495H326.022V33.6185H323.744V32.3334H326.022V32.0024H325.048C324.165 32.0024 323.724 31.6649 323.724 30.99V30.6784L323.529 31.282C321.712 30.7498 319.83 30.315 317.883 29.9775L319.032 26.6091C320.888 27.0505 322.452 27.4723 323.724 27.8747V26.4144H329.799V29.8217H326.294V29.8996C326.294 30.1203 326.314 30.2501 326.353 30.289C326.392 30.315 326.476 30.328 326.606 30.328C326.749 30.328 326.852 30.328 326.917 30.328C327.086 30.328 327.203 30.302 327.268 30.2501C327.333 30.1982 327.365 30.0878 327.365 29.9191L329.818 30.2696C329.818 31.0094 329.598 31.5157 329.156 31.7883H329.254V32.3334H330.636V31.8661C330.26 31.7234 330.071 31.4313 330.071 30.99V28.7314H333.343V28.4004H330.071V26.4144H336.205V29.8217H332.7V29.8996C332.7 30.0684 332.706 30.1787 332.719 30.2306C332.745 30.2825 332.81 30.315 332.914 30.328C333.018 30.328 333.161 30.328 333.343 30.328C333.472 30.328 333.57 30.302 333.635 30.2501C333.699 30.1982 333.732 30.0878 333.732 29.9191L336.438 30.2696C336.438 30.8667 336.27 31.308 335.932 31.5936C335.595 31.8661 335.173 32.0024 334.666 32.0024H333.849V32.3334H336.244V33.6185H333.849V33.9495H336.399V35.5655H332.486C333.654 35.8121 334.952 35.9354 336.38 35.9354C336.029 36.2989 335.692 36.7143 335.367 37.1815ZM326.976 28.7314V28.4004H324.464L324.347 28.7314H326.976ZM330.636 33.6185H329.254V33.9495H330.636V33.6185ZM329.877 36.4417L330.422 35.5655H329.332L329.877 36.4417ZM329.955 37.4931C330.357 37.4931 330.948 37.4801 331.726 37.4541C331.233 37.3114 330.617 37.1166 329.877 36.87C329.124 37.1296 328.507 37.3308 328.027 37.4736C328.416 37.4866 329.059 37.4931 329.955 37.4931ZM352.677 33.2096C353.287 34.1572 353.877 34.91 354.448 35.4682C355.02 36.0133 355.656 36.4611 356.356 36.8116C355.915 37.7202 355.448 38.7976 354.955 40.0437L354.429 41.3093C353.352 40.4526 352.352 39.4336 351.43 38.2524C350.522 37.0582 349.724 35.7992 349.036 34.4752L350.788 33.2096H348.86C348.692 35.0658 348.413 36.5974 348.023 37.8046C347.634 38.9988 347.16 40.154 346.602 41.2703C346.122 40.9848 345.557 40.7057 344.908 40.4331C344.272 40.1605 343.662 39.9399 343.078 39.7711C342.961 40.1346 342.747 40.4006 342.435 40.5694C342.137 40.7381 341.721 40.8485 341.189 40.9004C340.67 40.9523 339.82 40.9977 338.638 41.0367L338.171 41.0562C338.106 40.2514 338.015 39.5894 337.899 39.0702C337.795 38.538 337.587 37.9798 337.276 37.3957C337.821 37.3957 338.21 37.3763 338.444 37.3373C338.677 37.2854 338.82 37.214 338.872 37.1231C338.924 37.0193 338.95 36.857 338.95 36.6364V36.3443L337.607 36.4417C337.529 34.91 337.405 33.6964 337.237 32.8007C337.989 32.7748 338.561 32.7488 338.95 32.7228V31.2626H337.607V27.8163H338.95V26.2197H343.272V27.8163H344.382V31.2626H343.272V32.5281L344.441 32.4502C344.402 33.1642 344.382 34.2415 344.382 35.6823C344.759 34.2415 344.947 32.1842 344.947 29.5102V26.4144L355.792 26.4339V33.2096H352.677ZM348.997 29.958V30.2696H352.034V29.335H348.997V29.958ZM343.272 37.7851V38.4471C343.74 37.5645 344.09 36.7143 344.324 35.8965C343.856 35.9484 343.506 35.9809 343.272 35.9939V37.7851ZM364.223 27.4658C366.87 26.9596 369.486 26.7065 372.069 26.7065C372.848 26.7065 373.724 26.7389 374.698 26.8038C374.698 27.7254 374.711 28.5237 374.737 29.1987C374.762 29.8607 374.827 30.5292 374.931 31.2041C373.438 31.0224 372.069 30.9316 370.823 30.9316C368.824 30.9316 366.702 31.1652 364.456 31.6325L364.223 27.4658ZM358.031 40.9199C357.797 39.8036 357.622 38.7522 357.505 37.7657C357.401 36.7662 357.349 35.6434 357.349 34.3973C357.349 32.3594 357.512 29.8802 357.836 26.9596H362.801C362.412 30.2047 362.217 32.7358 362.217 34.553C362.217 35.7472 362.288 36.8116 362.431 37.7462C362.587 38.6678 362.821 39.5894 363.132 40.511L358.031 40.9199ZM369.518 40.842C367.416 40.842 365.884 40.4331 364.923 39.6153C363.963 38.7976 363.483 37.545 363.483 35.8576C363.483 35.3773 363.522 34.8646 363.599 34.3194C365.118 34.1896 366.481 33.8067 367.688 33.1707C367.623 33.7288 367.591 34.1572 367.591 34.4557C367.591 34.9619 367.656 35.3448 367.786 35.6044C367.928 35.8641 368.136 36.0393 368.409 36.1301C368.681 36.221 369.051 36.2664 369.518 36.2664C370.674 36.2664 371.699 36.234 372.595 36.1691C373.503 36.0912 374.561 35.9095 375.768 35.6239C375.639 36.1042 375.535 36.7986 375.457 37.7072C375.392 38.6029 375.36 39.531 375.36 40.4915C374.295 40.6343 373.322 40.7316 372.439 40.7836C371.556 40.8225 370.583 40.842 369.518 40.842ZM376.645 26.4144H394.713V29.0624H376.645V26.4144ZM394.927 37.7462C394.538 38.3173 394.2 38.9209 393.915 39.5569C393.629 40.193 393.415 40.7771 393.272 41.3093C391.144 40.9588 389.294 40.0956 387.723 38.7197L387.704 38.7392C387.016 39.3752 386.192 39.9139 385.231 40.3552C384.27 40.7965 383.219 41.1146 382.077 41.3093C381.791 40.193 381.324 39.1351 380.675 38.1356C380.558 38.6678 380.415 39.1481 380.247 39.5764C380.091 40.0048 379.877 40.5175 379.604 41.1146C378.124 40.5564 376.833 40.1605 375.729 39.9269C376.314 38.8495 376.69 37.7397 376.859 36.5974C377.028 35.4552 377.112 33.9689 377.112 32.1387V29.4323L394.324 29.4518V34.0663H381.064C381.025 35.598 380.922 36.8246 380.753 37.7462C383.245 37.6553 384.861 37.3763 385.601 36.909H381.279V34.4946H386.068V34.2415H389.3V34.4946H394.499V36.909H389.495C390.066 37.1815 390.676 37.3633 391.325 37.4541C391.974 37.545 392.896 37.6294 394.09 37.7072C394.259 37.7072 394.538 37.7202 394.927 37.7462ZM390.624 31.944V31.4183H381.084V31.944H390.624ZM407.583 31.2626C409.037 31.2626 410.263 31.4767 411.263 31.9051C412.262 32.3204 413.002 32.8656 413.483 33.5406C413.976 34.2026 414.222 34.9165 414.222 35.6823C414.222 37.0193 413.788 38.1161 412.918 38.9728C412.061 39.8295 410.951 40.4591 409.588 40.8614C408.239 41.2509 406.791 41.4456 405.247 41.4456C403.689 41.4456 402.32 41.1924 401.138 40.6862C399.97 40.167 399.295 39.4077 399.113 38.4082C399.087 38.2265 399.074 38.0967 399.074 38.0188C399.074 37.4736 399.269 36.9739 399.659 36.5196C400.061 36.0652 400.6 35.7083 401.275 35.4487C401.963 35.1891 402.715 35.0593 403.533 35.0593C405.649 35.0593 407.447 35.7278 408.926 37.0647C409.186 36.8051 409.316 36.5131 409.316 36.1886C409.316 35.5655 409.011 35.0787 408.401 34.7283C407.804 34.3648 406.869 34.1831 405.597 34.1831C404.636 34.1831 403.656 34.2999 402.657 34.5336C401.671 34.7542 400.723 35.1307 399.814 35.6629L396.446 37.6683C396.251 35.7732 396.024 34.261 395.764 33.1317C396.842 32.6774 397.919 32.2361 398.997 31.8077C399.594 31.5611 400.288 31.2755 401.08 30.951C401.872 30.6265 402.78 30.2501 403.806 29.8217H397.887V26.395H411.769L412.645 29.1403L409.783 30.328C409.511 30.4448 409.193 30.5811 408.829 30.7369C408.466 30.8926 408.05 31.0679 407.583 31.2626ZM402.56 37.4347C402.56 37.6034 402.748 37.7462 403.124 37.863C403.514 37.9669 404.052 38.0188 404.74 38.0188H404.877C404.669 37.6943 404.422 37.4606 404.137 37.3178C403.864 37.1751 403.54 37.0972 403.163 37.0842C402.761 37.0842 402.56 37.201 402.56 37.4347Z" fill="#FF8F45"/>
</g>
<g filter="url(#filter2_d_141_2)">
<path d="M425.184 31.1659L424.125 32.2515L423.065 31.1659L424.125 30.0802L425.184 31.1659ZM450.668 43.4508C450.668 43.8581 450.51 44.2487 450.229 44.5367C449.948 44.8246 449.566 44.9864 449.169 44.9864C448.771 44.9864 448.39 44.8246 448.109 44.5367C447.828 44.2487 447.67 43.8581 447.67 43.4508H450.668ZM431.62 39.9296L424.125 32.2515L426.244 30.0802L433.739 37.7583L431.62 39.9296ZM424.125 30.0802L431.62 22.4021L433.739 24.5735L426.244 32.2515L424.125 30.0802ZM425.184 29.6303H440.175V32.7015H425.184V29.6303ZM450.668 40.3796V43.4508H447.67V40.3796H450.668ZM440.175 29.6303C442.958 29.6303 445.627 30.7628 447.594 32.7787C449.562 34.7945 450.668 37.5287 450.668 40.3796H447.67C447.67 38.3432 446.88 36.3903 445.474 34.9503C444.069 33.5104 442.162 32.7015 440.175 32.7015V29.6303Z" fill="#FF8F45"/>
<path d="M424.125 32.2516L425.184 31.1659L424.125 30.0802M424.125 32.2516L423.065 31.1659L424.125 30.0802M424.125 32.2516L431.62 39.9296L433.739 37.7583L426.244 30.0802L424.125 32.2516ZM424.125 30.0802L431.62 22.4021L433.739 24.5735L426.244 32.2516L424.125 30.0802ZM450.668 43.4508C450.668 43.8581 450.51 44.2487 450.229 44.5367C449.948 44.8246 449.566 44.9864 449.169 44.9864C448.771 44.9864 448.39 44.8246 448.109 44.5367C447.828 44.2487 447.67 43.8581 447.67 43.4508M450.668 43.4508H447.67M450.668 43.4508V40.3796M447.67 43.4508V40.3796M440.175 29.6303H425.184V32.7015H440.175M440.175 29.6303V32.7015M440.175 29.6303C442.958 29.6303 445.627 30.7628 447.594 32.7787C449.562 34.7945 450.668 37.5287 450.668 40.3796M440.175 32.7015C442.162 32.7015 444.069 33.5104 445.474 34.9503C446.88 36.3903 447.67 38.3432 447.67 40.3796M450.668 40.3796H447.67" stroke="#FF8F45" stroke-width="2.08611" stroke-linejoin="round"/>
</g>
<defs>
<filter id="filter0_d_141_2" x="20.9316" y="14.0376" width="44.427" height="65.6064" filterUnits="userSpaceOnUse" color-interpolation-filters="sRGB">
<feFlood flood-opacity="0" result="BackgroundImageFix"/>
<feColorMatrix in="SourceAlpha" type="matrix" values="0 0 0 0 0 0 0 0 0 0 0 0 0 0 0 0 0 0 127 0" result="hardAlpha"/>
<feOffset dx="13.9952" dy="13.9952"/>
<feGaussianBlur stdDeviation="5.59808"/>
<feComposite in2="hardAlpha" operator="out"/>
<feColorMatrix type="matrix" values="0 0 0 0 0 0 0 0 0 0 0 0 0 0 0 0 0 0 0.25 0"/>
<feBlend mode="normal" in2="BackgroundImageFix" result="effect1_dropShadow_141_2"/>
<feBlend mode="normal" in="SourceGraphic" in2="effect1_dropShadow_141_2" result="shape"/>
</filter>
<filter id="filter1_d_141_2" x="45.8042" y="23.3381" width="380.935" height="30.6241" filterUnits="userSpaceOnUse" color-interpolation-filters="sRGB">
<feFlood flood-opacity="0" result="BackgroundImageFix"/>
<feColorMatrix in="SourceAlpha" type="matrix" values="0 0 0 0 0 0 0 0 0 0 0 0 0 0 0 0 0 0 127 0" result="hardAlpha"/>
<feOffset dx="6.9537" dy="6.9537"/>
<feGaussianBlur stdDeviation="2.78148"/>
<feComposite in2="hardAlpha" operator="out"/>
<feColorMatrix type="matrix" values="0 0 0 0 0 0 0 0 0 0 0 0 0 0 0 0 0 0 0.25 0"/>
<feBlend mode="normal" in2="BackgroundImageFix" result="effect1_dropShadow_141_2"/>
<feBlend mode="normal" in="SourceGraphic" in2="effect1_dropShadow_141_2" result="shape"/>
</filter>
<filter id="filter2_d_141_2" x="422.022" y="21.3591" width="42.2059" height="37.1871" filterUnits="userSpaceOnUse" color-interpolation-filters="sRGB">
<feFlood flood-opacity="0" result="BackgroundImageFix"/>
<feColorMatrix in="SourceAlpha" type="matrix" values="0 0 0 0 0 0 0 0 0 0 0 0 0 0 0 0 0 0 127 0" result="hardAlpha"/>
<feOffset dx="6.9537" dy="6.9537"/>
<feGaussianBlur stdDeviation="2.78148"/>
<feComposite in2="hardAlpha" operator="out"/>
<feColorMatrix type="matrix" values="0 0 0 0 0 0 0 0 0 0 0 0 0 0 0 0 0 0 0.25 0"/>
<feBlend mode="normal" in2="BackgroundImageFix" result="effect1_dropShadow_141_2"/>
<feBlend mode="normal" in="SourceGraphic" in2="effect1_dropShadow_141_2" result="shape"/>
</filter>
</defs>
</svg>
