<svg width="108" height="160" viewBox="0 0 108 160" fill="none" xmlns="http://www.w3.org/2000/svg">
<g filter="url(#filter0_d_96_245)">
<path d="M70.8841 58.7352L69.346 78.1255C69.1543 80.5345 69.4413 82.9577 70.1904 85.2552L72.9027 93.5908C72.9857 93.8388 73.061 94.0893 73.1286 94.3419C73.6239 96.2363 75.7573 104.831 75.0131 110.422C74.1307 117.059 67.9589 127.574 66.7481 129.594C66.6104 129.822 66.4656 130.045 66.314 130.264C65.1243 132.006 59.59 140.099 58.725 141.13L42.9676 127.908L48.021 121.886C48.7683 120.995 49.1229 119.83 49.0092 118.634L47.7355 105.285C47.1064 100.098 50.6716 89.4356 53.3046 83.7006C53.3407 83.6182 53.3524 83.5272 53.3382 83.4384C53.324 83.3496 53.2845 83.2667 53.2245 83.1997L45.2908 73.8518C44.8928 73.3808 44.5893 72.8592 44.38 72.287L38.2871 55.2329C38.1422 54.8641 38.0875 54.4661 38.1275 54.0719C38.1676 53.6777 38.3012 53.2988 38.5173 52.9667C38.7334 52.6346 39.0258 52.359 39.3699 52.1627C39.7141 51.9664 40.1002 51.8552 40.4961 51.8384C44.5276 51.6187 48.4891 53.6753 50.7348 57.1607L52.5021 61.9515L45.2624 41.3945C45.0486 40.8083 44.9599 40.184 45.0018 39.5615C45.0438 38.9391 45.2155 38.3323 45.506 37.7801C45.7965 37.228 46.1993 36.7428 46.6886 36.3557C47.1778 35.9685 47.7426 35.6881 48.3468 35.5323L48.9383 35.3838C50.6319 34.9424 52.4468 35.5091 53.6157 36.8457L69.7478 55.3189C70.1532 55.7853 70.4622 56.3272 70.6572 56.9135C70.8522 57.4998 70.9293 58.1189 70.8841 58.7352Z" fill="white"/>
<path d="M33.9924 27.2349C40.6059 19.8635 57.3538 9.54349 71.4377 27.2349" stroke="white" stroke-width="3.59213" stroke-linecap="round"/>
<path d="M22.5959 11.7683C33.0912 4.39692 59.6695 -5.92307 82.02 11.7683" stroke="white" stroke-width="3.59213" stroke-linecap="round"/>
</g>
<defs>
<filter id="filter0_d_96_245" x="20.7998" y="0.204346" width="81.13" height="159.039" filterUnits="userSpaceOnUse" color-interpolation-filters="sRGB">
<feFlood flood-opacity="0" result="BackgroundImageFix"/>
<feColorMatrix in="SourceAlpha" type="matrix" values="0 0 0 0 0 0 0 0 0 0 0 0 0 0 0 0 0 0 127 0" result="hardAlpha"/>
<feOffset dx="10.0631" dy="10.0631"/>
<feGaussianBlur stdDeviation="4.02525"/>
<feComposite in2="hardAlpha" operator="out"/>
<feColorMatrix type="matrix" values="0 0 0 0 0 0 0 0 0 0 0 0 0 0 0 0 0 0 0.25 0"/>
<feBlend mode="normal" in2="BackgroundImageFix" result="effect1_dropShadow_96_245"/>
<feBlend mode="normal" in="SourceGraphic" in2="effect1_dropShadow_96_245" result="shape"/>
</filter>
</defs>
</svg>
